<svg xmlns="http://www.w3.org/2000/svg" viewBox="0 0 32 32"><title>firefox</title><g id="General-icons"><path d="M30.18,11,21.76,9.54,17.57,1.3c-.87-1.74-2.29-1.73-3.16,0l-4,8.24L1.86,11c-2,.32-2.45,1.73-1.08,3.12l6.06,6.52L5.42,29.81C5.2,31.19,5.77,32,6.76,32a2.91,2.91,0,0,0,1.3-.36L16,27.37l8,4.26a2.92,2.92,0,0,0,1.3.36c1,0,1.56-.81,1.35-2.19l-1.41-9.18,6-6.52C32.63,12.71,32.14,11.3,30.18,11Zm-5.76,4.73-3.49,3.57.73,4.76c.17,1.09-.51,1.56-1.5,1L16.05,23l-4.11,2.13c-1,.52-1.67,0-1.5-1l.73-4.76L7.69,15.72c-.78-.8-.5-1.59.61-1.77l4.88-.79,1.94-4.07c.49-1,1.23-1,1.72,0L19,13.15l4.81.79C24.93,14.12,25.2,14.92,24.43,15.71Z"/></g></svg>