<svg xmlns="http://www.w3.org/2000/svg" viewBox="0 0 32 32"><defs><style>.cls-1{fill-rule:evenodd;}</style></defs><title>firefox</title><g id="General-icons"><path class="cls-1" d="M23.44,10.75C16.8,2.71,4.17,1.9,4.17,1.9A1.46,1.46,0,0,0,2.64,3.35l0,2.83A1.52,1.52,0,0,0,4.2,7.63s9,.29,14.15,6.36c7,7.24,6.31,14.36,6.31,14.36a1.52,1.52,0,0,0,1.54,1.52l3.1,0a1.34,1.34,0,0,0,1.35-1.48S30,16.9,23.44,10.75ZM4.15,11.83a1.44,1.44,0,0,0-1.52,1.41l0,2.23a1.44,1.44,0,0,0,1.52,1.41s4.82.16,7.69,2.8a12.71,12.71,0,0,1,3.79,8.6c0,.83.4,1.54,1.24,1.54l2.85,0c.84,0,1-.64,1-1.47,0,0-.64-7.83-4.9-11.79S4.15,11.83,4.15,11.83Zm2.49,10a4,4,0,1,0,4,4A4,4,0,0,0,6.63,21.86Z"/></g></svg>