<svg xmlns="http://www.w3.org/2000/svg" viewBox="0 0 32 32"><defs><style>.cls-1{fill-rule:evenodd;}</style></defs><title>firefox</title><g id="ReaderMode-icons"><path class="cls-1" d="M9.69,9H27.32A.68.68,0,0,0,28,8.32v-2a.68.68,0,0,0-.68-.68H9.69A.68.68,0,0,0,9,6.28v2A.68.68,0,0,0,9.69,9Zm17.63,8.05H9.69a.68.68,0,0,0-.68.68v2a.68.68,0,0,0,.68.68H27.32a.68.68,0,0,0,.68-.68v-2A.68.68,0,0,0,27.32,17.05Zm0,6H9.69A.68.68,0,0,0,9,23.7v2a.68.68,0,0,0,.68.68H27.32a.68.68,0,0,0,.68-.68v-2A.68.68,0,0,0,27.32,23Zm0-11.94H9.69a.68.68,0,0,0-.68.68v2a.68.68,0,0,0,.68.68H27.32a.68.68,0,0,0,.68-.68v-2A.68.68,0,0,0,27.32,11.08Zm-20.64,0h-2a.68.68,0,0,0-.68.68v2a.68.68,0,0,0,.68.68h2a.68.68,0,0,0,.68-.68v-2A.68.68,0,0,0,6.68,11.11Zm0,5.94h-2a.68.68,0,0,0-.68.68v2a.68.68,0,0,0,.68.68h2a.68.68,0,0,0,.68-.68v-2A.68.68,0,0,0,6.64,17.05Zm-2-8.28h2a.68.68,0,0,0,.68-.69V6a.68.68,0,0,0-.68-.69h-2A.68.68,0,0,0,4,6V8.08A.68.68,0,0,0,4.68,8.77ZM6.64,23h-2A.68.68,0,0,0,4,23.7v2a.68.68,0,0,0,.68.68h2a.68.68,0,0,0,.68-.68v-2A.68.68,0,0,0,6.64,23Z"/></g></svg>