<svg xmlns="http://www.w3.org/2000/svg" viewBox="0 0 32 32"><defs><style>.cls-1{fill-rule:evenodd;}</style></defs><title>firefox</title><g id="Action-icons"><path class="cls-1" d="M26.91,29.94c-1.6,0-2.93-.32-4.4-2.46s-3.27-4.8-3.27-4.8S18,20.93,17.11,19.57a2,2,0,0,0-2.13-1s-5.49-9-6.4-10.37c-1.27-2,1.11-5.22,1.11-5.22l8.49,13.58a37.27,37.27,0,0,0,3.6,4.41c1,.78,2.67-.72,5.4,1.75C30.91,26,29.64,29.94,26.91,29.94Zm-.4-5.57c-1.8-2-3.33-1.75-3.73-1.23s0,2.4.73,3.37a3.11,3.11,0,0,0,2.67,1.43C27.31,27.93,28.31,26.37,26.51,24.36ZM19.1,15.23l-2.28-3.42,5.54-8.87s2.38,3.26,1.11,5.22C22.93,9,20.76,12.52,19.1,15.23Zm-8.82,5.7A24.07,24.07,0,0,0,13,17.68l1.59,2.39c-.83,1.25-1.81,2.61-1.81,2.61s-1.8,2.66-3.27,4.8-2.8,2.46-4.4,2.46c-2.73,0-4-3.89-.27-7.26C7.61,20.21,9.28,21.7,10.28,20.93ZM5.55,24.36c-1.8,2-.8,3.57.33,3.57A3.11,3.11,0,0,0,8.54,26.5c.73-1,1.13-2.85.73-3.37S7.34,22.35,5.55,24.36Z"/></g></svg>