<svg xmlns="http://www.w3.org/2000/svg" viewBox="0 0 32 32"><title>firefox</title><g id="General-icons"><path d="M21.92,30.86a1.92,1.92,0,0,0,1.91-1.93V22.05s.29-1.77,1.46-1.77,1.05,1.87,3.24,1.87c1.09,0,3-.56,3-3.95s-1.89-3.79-3-3.79c-2.19,0-2.07,1.77-3.24,1.77s-1.46-1.82-1.46-1.82V11.55a1.92,1.92,0,0,0-1.91-1.93h-5s-1.67-.29-1.67-1.46S17.05,6.9,17.05,4.7c0-1.09-.61-2.83-4-2.83S9.21,3.61,9.21,4.7c0,2.19,1.67,2.27,1.67,3.45S9.21,9.61,9.21,9.61H4.42a1.92,1.92,0,0,0-1.91,1.93v3.78s-.2,2.91,2.14,2.91c1.48,0,1.67-2,3.62-2,1,0,2,.91,2,2.92s-1,3-2,3c-1.94,0-2.14-2-3.62-2C2.31,20.2,2.52,23,2.52,23v5.91a1.92,1.92,0,0,0,1.91,1.93h6.42s3,.2,3-2.14C13.89,27.24,12,27,12,25,12,24,13,22.85,15,22.85s3.2,1.2,3.2,2.16c0,1.94-1.86,2.23-1.86,3.71,0,2.34,3,2.14,3,2.14Z"/></g></svg>