<svg xmlns="http://www.w3.org/2000/svg" viewBox="0 0 32 32"><title>firefox</title><g id="General-icons"><path d="M16.48,2.38a14,14,0,1,0,14,14A14,14,0,0,0,16.48,2.38ZM26,19.12c-1,0-1.23-.68-1.63-1a1.87,1.87,0,0,0-1-.38c-.34,0-.56,0-.66.23a6.59,6.59,0,0,0-.17,2.26c0,2.87,0,3,0,3.54a.63.63,0,0,1-.58.63c-.27,0-1.15,0-3,0-.53,0-2.21.46-2.21-1a1.4,1.4,0,0,1,.59-1.17,1.39,1.39,0,0,0,.25-1c0-1.2-1.56-1.35-1.63-1.35-1.74,0-1.67,1-1.67,1.28a1.68,1.68,0,0,0,.38,1.15A1.61,1.61,0,0,1,15,23.35c0,1.41-1.8,1-2.87,1H9c-.59,0-.55-.67-.55-.67s0-1.27,0-3.28c0-1.51,0-2.22.3-2.77a1,1,0,0,1,1-.49,2.6,2.6,0,0,1,1.72.63,1.05,1.05,0,0,0,1,.38c.79,0,1.26-.92,1.26-1.93,0-1.41-.18-1.86-1.29-1.86a1.63,1.63,0,0,0-1.22.43,2.79,2.79,0,0,1-1.6.49.8.8,0,0,1-.84-.41,2.45,2.45,0,0,1-.29-1.49s0-2.4,0-2.46,0-.58.55-.58h3.2c1.27,0,1.71-.77,1.71-1.33a.89.89,0,0,0-.28-.72A2.06,2.06,0,0,1,13,6.76a2.11,2.11,0,0,1,2.37-2c2.12,0,2.47,1.27,2.47,2A1.8,1.8,0,0,1,17.33,8a1.29,1.29,0,0,0-.28,1,1.41,1.41,0,0,0,1.54,1.39h3.34a.73.73,0,0,1,.56.71c0,.65,0,2.59,0,2.92,0,.59.8.88,1.07.88.44,0,.56-.34.88-.58A2,2,0,0,1,26,13.59c1.53,0,2.16,1.52,2.16,2.75S27.37,19.12,26,19.12Z"/></g></svg>