<svg xmlns="http://www.w3.org/2000/svg" viewBox="0 0 32 32"><defs><style>.cls-1{fill-rule:evenodd;}</style></defs><title>firefox</title><g id="ReaderMode-icons"><g id="add-reading-list"><path class="cls-1" d="M13,10.92H5.91c-.31,0-.57.18-.57.39v1.56c0,.22.25.39.57.39H13a.42.42,0,0,0,.44-.39V11.31A.42.42,0,0,0,13,10.92Z"/><path class="cls-1" d="M13,14.45H5.91c-.31,0-.57.15-.57.34v1.52c0,.19.25.34.57.34H13a.4.4,0,0,0,.44-.34V14.8A.4.4,0,0,0,13,14.45Z"/><path class="cls-1" d="M13,17.85H5.91c-.31,0-.57.17-.57.38v1.55c0,.21.25.38.57.38H13a.41.41,0,0,0,.44-.38V18.23A.41.41,0,0,0,13,17.85Z"/><path d="M26.22,22.63H20c-2.24,0-4.05.57-4.05,2.79q0,.58,0,0c0-2-1.52-2.79-3.55-2.79H4V8.7l7.89,0h0c1.8,0,3.52,1.92,4.05,3.52.53-1.6,2.26-3.48,4.05-3.48h2.57V6.3H20c-2,0-4.05,1.18-4.05,3.39q0,.57,0,0A3.33,3.33,0,0,0,12.36,6.3H2.81c-.56,0-1.09.74-1.09,1.29V23.91a1.07,1.07,0,0,0,1,1.08h9.12a4.24,4.24,0,0,1,4.05,2.66A4.24,4.24,0,0,1,20,25h7.27c.56,0,1.3-.52,1.3-1.08V12.39H26.22Z"/><polygon points="28.54 11.07 28.54 8.73 30.67 8.73 30.67 6.3 28.54 6.3 28.54 3.96 26.22 3.96 26.22 6.3 23.86 6.3 23.86 8.73 26.22 8.73 26.22 11.17 28.54 11.17 28.54 11.07 28.54 11.07"/></g></g></svg>