<svg xmlns="http://www.w3.org/2000/svg" viewBox="0 0 32 32"><title>firefox</title><g id="Media-icons"><g id="volume_icon" data-name="volume icon"><path d="M6.3,9.55A4.32,4.32,0,0,0,2,13.85v4.3a4.32,4.32,0,0,0,4.3,4.3H9l7.29,6.45V3.09L9,9.55ZM21.47,16a2,2,0,0,0-2.15-2.15v4.3A2,2,0,0,0,21.47,16Zm4.3,0a6.46,6.46,0,0,0-4.95-6.24l-.64,1.94a4.41,4.41,0,0,1,0,8.61L21,22.24A6.51,6.51,0,0,0,25.77,16ZM22.33,5.67l-.86,1.94A8.71,8.71,0,0,1,27.93,16a8.33,8.33,0,0,1-6.24,8.17l.86,1.94A10.26,10.26,0,0,0,30.07,16,10.64,10.64,0,0,0,22.33,5.67Z"/></g></g></svg>