<svg xmlns="http://www.w3.org/2000/svg" viewBox="0 0 32 32"><title>firefox</title><g id="General-icons"><path d="M30.14,10.9,21.72,9.46,17.53,1.22c-.43-.87-1-1.3-1.57-1.3h0c-.57,0-1.15.43-1.58,1.3l-4,8.24-5.24.88-3.36.56C.6,11.09,0,11.7,0,12.45c0,0,0,.06,0,.09A2.4,2.4,0,0,0,.71,14l.65.68,5.42,5.84L5.38,29.73c-.21,1.38.35,2.19,1.35,2.19h.15a2.8,2.8,0,0,0,1.27-.36L16,27.4l7.81,4.15a2.8,2.8,0,0,0,1.27.36l.16,0,.12,0c1,0,1.56-.81,1.35-2.19l-1.41-9.18,6-6.52C32.59,12.63,32.1,11.22,30.14,10.9Z"/></g></svg>