<svg xmlns="http://www.w3.org/2000/svg" viewBox="0 0 32 32"><defs><style>.cls-1{fill-rule:evenodd;}</style></defs><title>firefox</title><g id="Action-icons"><path class="cls-1" d="M17.89,7c0-.11-3.54-3.61-3.62-3.61H5.51A1.77,1.77,0,0,0,3.74,5.14V19.27A1.77,1.77,0,0,0,5.51,21h7.07V10.24a.88.88,0,0,1,.88-.88h4.42ZM12.58,8.67V5.14l3.54,3.53Zm12.3,1.77H16.12a1.77,1.77,0,0,0-1.77,1.77V26.34a1.77,1.77,0,0,0,1.77,1.77H26.73a1.77,1.77,0,0,0,1.77-1.77V14.05C28.5,13.95,25,10.44,24.88,10.44Zm-1.69,5.3V12.21l3.54,3.53Z"/></g></svg>