<svg xmlns="http://www.w3.org/2000/svg" viewBox="0 0 32 32"><defs><style>.cls-1{fill-rule:evenodd;}</style></defs><title>firefox</title><g id="Menu-icons"><path class="cls-1" d="M9,24a1,1,0,1,0,1,1A1,1,0,0,0,9,24ZM26,6H22L16,0,10,6H6a4,4,0,0,0-4,4V26a4,4,0,0,0,4,4H26a4,4,0,0,0,4-4V10A4,4,0,0,0,26,6ZM20,20a6,6,0,0,1-2-.35l-7.64,7.57a2.59,2.59,0,0,1-3.65,0,2.54,2.54,0,0,1,0-3.62l7.61-7.54A5.93,5.93,0,0,1,14,14a6,6,0,0,1,8.72-5.33L19.09,12.3a1.83,1.83,0,0,0,2.6,2.59l3.64-3.63A5.91,5.91,0,0,1,26,14,6,6,0,0,1,20,20Z"/></g></svg>