<svg xmlns="http://www.w3.org/2000/svg" viewBox="0 0 32 32"><title>firefox</title><g id="General-icons"><path d="M26,2H6A4,4,0,0,0,2,6V26a4,4,0,0,0,4,4H26a4,4,0,0,0,4-4V6A4,4,0,0,0,26,2Zm0,18c0,3.31-2.69,4-6,4H12a6,6,0,0,1-6-6V10a6,6,0,0,1,6-6h8a6,6,0,0,1,6,6ZM19.64,8a4.58,4.58,0,0,0-2,.42,3.64,3.64,0,0,0-1.42,1.2,2.83,2.83,0,0,0-1.27-1.35,5.34,5.34,0,0,0-2.19-.38,9.11,9.11,0,0,0-2,.23,8.54,8.54,0,0,0-1.79.72l.54,1.31a7.83,7.83,0,0,1,3.16-.74,2.64,2.64,0,0,1,1.82.54,1.75,1.75,0,0,1,.6,1.49V12h-2A7.62,7.62,0,0,0,9.25,13,2.47,2.47,0,0,0,8,15.17a2.77,2.77,0,0,0,1,2.23,4.14,4.14,0,0,0,2.63.75A5.67,5.67,0,0,0,14,17.68,5.34,5.34,0,0,0,15.8,16a4.72,4.72,0,0,0,4.26,2.18A9.78,9.78,0,0,0,21.86,18a11.24,11.24,0,0,0,1.65-.61V15.84a9.19,9.19,0,0,1-1.67.5,9.29,9.29,0,0,1-1.74.15c-2.15,0-3.31-1-3.31-2.86H24V12.31A4.21,4.21,0,0,0,22.8,9.18,4.31,4.31,0,0,0,19.64,8ZM15,14.46c0,.91-.29.86-.86,1.36a3.48,3.48,0,0,1-2.36.75,2.45,2.45,0,0,1-1.46-.39,1,1,0,0,1-.55-1c0-.67.28-.92.84-1.24a7.16,7.16,0,0,1,2.76-.3L15,13.59Zm1.83-2.38a2.66,2.66,0,0,1,.83-1.88,2.61,2.61,0,0,1,2-.73,2.4,2.4,0,0,1,1.89.74,2.44,2.44,0,0,1,.66,1.87Z"/></g></svg>