<svg xmlns="http://www.w3.org/2000/svg" viewBox="0 0 32 32"><defs><style>.cls-1{fill-rule:evenodd;}</style></defs><title>firefox</title><g id="Menu-icons"><g id="full-screen"><path class="cls-1" d="M7.56,22.43V9.57L1,16ZM16,1,9.55,7.56H22.43Zm8.44,8.57V22.43L31,16ZM16,31l6.43-6.56H9.57ZM21.49,9.44h-11a1.07,1.07,0,0,0-1.07,1.07v11a1.07,1.07,0,0,0,1.07,1.07h11a1.07,1.07,0,0,0,1.07-1.07v-11A1.07,1.07,0,0,0,21.49,9.44ZM20.07,19A1.07,1.07,0,0,1,19,20.07H13A1.07,1.07,0,0,1,11.93,19V15.07A1.07,1.07,0,0,1,13,14h6a1.07,1.07,0,0,1,1.07,1.07Z"/></g></g></svg>