<svg xmlns="http://www.w3.org/2000/svg" viewBox="0 0 32 32"><title>firefox</title><g id="General-icons"><path d="M13,18.57c0,.09,0,.16,0,.16s.27.13.39.07.06-.09.09-.19a.21.21,0,0,1-.11-.17l-.15-.21a.76.76,0,0,0-.07.15A.68.68,0,0,1,13,18.57ZM16.73,2.14A13.77,13.77,0,1,0,30.5,15.91,13.77,13.77,0,0,0,16.73,2.14Zm.72,2.5c.1-.14.44-.13.61-.08a5,5,0,0,1,1.08.16c.4.11.76.32,1.15.44.19.06.24.16.18.33s.08.2.2.24.23.11.18.24-.2.14-.31.15a.39.39,0,0,0-.31.17,1.4,1.4,0,0,1-.3.37c-.08.06-.06.31-.2.21s-.05,0-.13,0a.14.14,0,0,0-.11.09s-.06.1-.1,0a.48.48,0,0,1-.15,0s-.05-.09-.08-.11.06-.15,0-.22a.13.13,0,0,0-.16,0c-.09.06-.13,0-.21,0s0-.05-.06-.12a.18.18,0,0,0-.13,0c-.05,0,0,0,0,0a.39.39,0,0,0-.12,0s.09-.09.09-.14a1,1,0,0,0,0-.16c-.07-.05,0-.08.08,0s.09,0,.15,0-.11-.06-.13-.07-.13.06-.19.07-.12,0-.13,0,0-.06,0-.08a.21.21,0,0,0-.12,0,.47.47,0,0,1-.2,0A.57.57,0,0,0,17.75,6a.15.15,0,0,1-.13-.12.87.87,0,0,1,0-.24c.07,0,0,.06.09.07l.17,0c.05,0,.13,0,.18,0s.11-.16.16-.17a.06.06,0,0,0,0,0l.11,0s-.09,0-.08,0,0-.08,0-.13S18,5.25,18,5.28a.23.23,0,0,0-.11.08c0,.06-.09,0-.16,0s-.06-.11-.11-.17a.42.42,0,0,1-.12-.31C17.48,4.81,17.39,4.73,17.46,4.64Zm1.79,13.78s-.06.08,0,.12a.56.56,0,0,0,.06.13c.06.16-.15,0-.2,0s-.1-.05-.1-.11a.55.55,0,0,1,0-.14,2.1,2.1,0,0,1,0-.34.81.81,0,0,0,0-.17s-.06-.09,0-.12,0-.09,0-.15a.39.39,0,0,1,0-.11c0-.11-.08-.19-.1-.3s0-.1.07-.07l0,0s0,.05,0,.05.13-.05.15,0,0,0,0,.05a.08.08,0,0,0,0,0s.08,0,.1.09a.08.08,0,0,0,0,.06.07.07,0,0,0,.06,0c.05,0,.11,0,.14,0s0,.05,0,.1,0,.07.06.1a.31.31,0,0,1,.07.11c0,.05,0,.07,0,.13s.07.08.05.14-.06.1,0,.16.1,0,.08.09-.08,0-.11,0a.07.07,0,0,1-.06,0s0,0,0,0,0,0-.07,0,0,0,0,0S19.25,18.38,19.25,18.43Zm-1.82-2.25s0,0,0,0,0,0,.07.05.1,0,.16,0,0,0,.07,0,0,0,.06,0a.07.07,0,0,1,.08,0s0,0,.06,0,.07,0,.11,0,.09.05.14,0,0-.11.11-.11.09,0,.05.07a.14.14,0,0,0,0,.11s0,0,.07,0,0-.1.1-.1.1,0,.15,0h.08l.06,0s.09,0,.13,0,.11.14.17.2.09,0,.12.08l0,.05a.15.15,0,0,1,.06,0s0,.07,0,.11a.16.16,0,0,0,0,.1s.08.18,0,.18h-.08s0,0,0,0l-.1-.08s0-.1-.07-.15a.16.16,0,0,0-.09-.06l-.07,0H18.8a.28.28,0,0,1-.16-.11s0,0-.06,0l-.08,0c-.07,0-.12,0-.2,0a.52.52,0,0,1-.19,0,.3.3,0,0,1-.22-.06s-.05-.06-.09-.09l-.11,0a1.37,1.37,0,0,1-.21-.06.69.69,0,0,1-.12-.1l-.18-.07s-.17,0-.11-.09a.25.25,0,0,1,.13,0c.06,0,.07.06.11.09A.09.09,0,0,0,17.43,16.18Zm-.56,3h-.05l0,0s-.08.09-.08,0l-.06,0s.07-.16.12-.16h0a.94.94,0,0,1,.41-.27.4.4,0,0,0,.22-.1c.06-.07,0-.14,0-.22s.13,0,.18,0a.28.28,0,0,0,.26,0c.09,0,.15-.09.25-.08s.13.08.17.17.28.1.25.29,0,.21,0,.32a.52.52,0,0,1,0,.17s0,.12,0,.15-.11,0-.15,0l-.17.05c-.1,0-.18-.05-.27,0a.66.66,0,0,1-.1.08l-.16,0a.26.26,0,0,1-.15,0s-.06-.06-.1-.08-.23,0-.32.07-.2.1-.28.06,0-.19.07-.25a1.2,1.2,0,0,0,.05-.29S16.89,19.17,16.86,19.16Zm1.63-1.71-.1,0-.07,0c-.09,0,0-.09,0-.14s0-.15,0-.19v0s0,0,0-.08,0,0,.06,0,0,0,.07,0a.06.06,0,0,1,0,0l0,.06a.14.14,0,0,1,0,.09.26.26,0,0,0,0,.09s0,0,0,.07.06,0,.06.07S18.5,17.45,18.49,17.45ZM17.36,4.62s-.08.07-.11.08-.11,0-.17,0h0s-.08,0-.07-.09S17.35,4.55,17.36,4.62Zm-4,.65a.32.32,0,0,1,.13-.13c.05,0,.06-.07.09-.1h0a.19.19,0,0,1,0-.18c0-.06.1-.05.16-.06s.34-.16.51-.1.27,0,.43,0l.25,0a2.15,2.15,0,0,1,.24-.06c.06,0,.21,0,.16.1s-.06.14,0,.13.22-.2.35-.23,0,.07,0,.1-.11.16,0,.13l0,0s.08,0,.13-.06l.28-.09c.18-.07.25,0,.4.08s.36,0,.33.09-.16.1-.22.12-.12.1-.09.22-.11.28-.14.41a.77.77,0,0,1-.25.36c-.11.08-.31.24-.45.2l-.25-.06c-.09,0-.15-.09-.23-.11s.12,0,.18-.05.06,0,.08,0,0-.09,0-.12.12-.16.19-.17a.3.3,0,0,0,.14,0c.05,0,.09,0,.15,0s.23-.11.2-.18a.3.3,0,0,0-.21.07c0-.06.15-.13.13-.19s-.07.09-.13.1-.07-.1-.1-.13-.21.28-.34.25,0-.1-.13-.08-.14.1-.14.19-.1.12-.14.17-.15.06-.23,0-.06-.15-.14-.18a.32.32,0,0,0-.25,0c-.09,0-.13.15-.21.19a.79.79,0,0,1-.28,0s-.26,0-.24-.07.06-.13,0-.18-.12-.08-.08-.14.12,0,.14-.1-.17-.05-.17-.15-.16.08-.23.14S13.38,5.3,13.4,5.27Zm-.05,2.29a.23.23,0,0,1-.19.06s0-.09,0-.12.06,0,.08-.07a1.35,1.35,0,0,1,.12-.17c.06,0,.16-.06.18,0s-.06.12-.08.18.16,0,.12.1a.2.2,0,0,1-.22,0v0ZM6.88,14.72c-.08.08-.13.26-.27.2a1.28,1.28,0,0,1-.46-.5c-.09,0-.17-.33-.18-.43s-.11-.24,0-.26,0-.1,0-.13,0-.16,0-.24.09-.21.08-.31,0-.06,0-.1A.3.3,0,0,0,6,12.79c0-.11.15-.1.18-.2s0-.08,0-.09,0,.11,0,.14,0-.2,0-.31a2.51,2.51,0,0,1,0-.37.88.88,0,0,1,.07-.27c0-.05,0-.24-.08-.15a2.93,2.93,0,0,1,0-.61,2.31,2.31,0,0,1,.25-.64,11.94,11.94,0,0,1,.63-1.21c.12-.18.27-.35.39-.54a2.32,2.32,0,0,0,.19-.3A1,1,0,0,1,8,8a3.28,3.28,0,0,1,.4-.4c.07-.05.15-.15.24-.13s.14-.06.22-.11a1.56,1.56,0,0,1,0,.18c.06-.06.1-.15.15-.22a1.17,1.17,0,0,1,.27-.25S9.36,7,9.41,7l.1,0s.27-.14.24-.18-.6.43-.73.4S9.2,7,9.25,7s.3-.23.45-.35.31-.25.47-.35.16-.08.23-.14.11-.11.18-.1.12,0,.18,0a2.85,2.85,0,0,0,.44-.2c.08,0,.79-.5.82-.37s.1-.08.18-.07a.35.35,0,0,0,.26-.09L12.9,5c.06,0,.11,0,.1,0s-.11.07-.14.09a.47.47,0,0,0-.15.16c-.06.1-.14.17-.21.26s.1,0,.16-.06.09,0,.16,0,.07,0,.1,0,0,0,.08,0,.11.08.17.08-.21.23,0,.26.08.07.16.1l.1,0,0,0h.1s-.06,0-.09,0h0s0,.06,0,0a.27.27,0,0,1-.15.14c-.07,0-.16,0-.22.06a.14.14,0,0,0,.16.22c0,.05,0,.06,0,.08-.12.15-.22.31-.36.08s-.37-.05-.51.08-.17.37.05.45.12.07,0,.16c0,.06-.1.11-.12.18s.12,0,.13-.1,0-.07.08-.06,0,.16-.06.19.1,0,.14,0,.08,0,.13,0,0-.06.07-.07,0,.08,0,.09-.07.18-.14.19-.1,0-.09.1,0,.07,0,.15,0,.14.07.23,0,.07.07.11a.66.66,0,0,0,.21,0c.09,0,.23-.09.2-.18s0-.07,0-.11.09-.09.13,0,0-.08,0-.13.11,0,.07-.12-.15-.08-.13-.1a.49.49,0,0,1,.24,0c.12.05.17.26.33.18a.65.65,0,0,0,.34-.42c0-.14-.08-.17-.19-.21s-.08-.07-.11-.13S14,7,13.87,7s-.17-.15,0-.2.12,0,.18,0,.07-.16.13-.07c0-.07.17,0,.22,0s0-.07.08-.06.07,0,.11.05.05,0,.09-.06.09,0,.13.06.1,0,.14,0,.1,0,.1,0,.06.15.07.23.2.08.08.18-.14.17-.24.14,0,0-.11,0-.06.08-.1.09,0,.13,0,.2,0,.09,0,.14,0,.12-.05.18.16.24.21.31a.86.86,0,0,0,.31.32c.09,0,.13.14.21.2s.1,0,.1.06a.52.52,0,0,0,0,.15c0,.06.16.07.21.07s.16,0,.21,0a2.72,2.72,0,0,1-.31.34.46.46,0,0,1-.2.12c-.07,0-.12,0-.18,0s0,.12-.08.17-.13.06-.18.1-.27.19-.25.06,0-.08,0-.12-.05-.06-.08-.09-.07,0-.09-.09a.18.18,0,0,0-.06-.13c-.07,0-.05,0-.08-.13s-.09-.1-.11-.17,0-.3-.15-.44c0,.05,0,.1,0,.14a.2.2,0,0,0,0,.16.31.31,0,0,1-.22-.1s-.13-.12-.17-.07.16.15.22.18.15.13.09.28.16,0,.2,0,0,.13.09.13c0,.15-.16.25-.17.4s0,.16,0,.24a.3.3,0,0,1-.2.2c-.24.06-.34-.18-.43-.34a.17.17,0,0,0-.2-.09s0,0-.08.07-.12,0-.18.06-.11.14-.19.17-.12,0-.17,0a.12.12,0,0,0,0,.09.17.17,0,0,0-.09.06c-.05.06-.15.1-.19.16s.07.15.06.23a.36.36,0,0,1-.12.18c-.17.06,0,.23,0,.32s0,0,0,.06,0,0,0,.09a.69.69,0,0,0,.18.2c.06,0,.19.08.21.14s-.06.22-.12.32a1.35,1.35,0,0,0-.14.24s0,.14-.06.17-.13-.31-.31-.21-.14.23-.28.25-.1-.06-.11-.12a.27.27,0,0,1-.12,0c-.08,0,0-.07,0-.12s.12-.08.19-.13,0-.11,0-.19-.12-.1-.15-.15a.27.27,0,0,0-.24-.09.25.25,0,0,1-.12-.05c0,.05-.2,0-.26,0s-.14.2-.05.22S11,12,11,12s.05,0,0,.05a.22.22,0,0,0,0,.12,1.11,1.11,0,0,0,.07.52,1,1,0,0,0-.24.1.1.1,0,0,0-.11-.16.22.22,0,0,1,0,.1c-.06,0-.1,0-.13,0s0-.05,0-.11-.08-.26-.14-.13c0-.12-.2-.3-.23-.08,0,.07,0,.2-.11.16s-.12-.15-.14-.21c0,.11.11.16.09.25s-.11.13-.15.17h.21c0,.05,0,.08,0,.14h0c0,.06,0,.14,0,.21H9.95s0,.06,0,0a0,0,0,0,1,0,0h0s0,0,0-.06-.09,0-.15,0,0,.17-.13.15-.15-.12-.2-.11,0,0,0,.07l-.08,0c-.09,0-.16.08-.27.06a.26.26,0,0,0-.24.07c-.09.06-.15,0-.24,0l-.18,0a.13.13,0,0,1-.07,0s-.13,0-.18,0a1,1,0,0,0-.63.1.68.68,0,0,0-.36.4c0,.29.34.32.51.45s-.24.29-.35.33A1,1,0,0,0,6.88,14.72Zm.87,5.51a.17.17,0,0,1,0,.17s-.09.07-.11,0h0C7.61,20.34,7.65,20.15,7.75,20.23Zm0-5.51s.05-.05.07-.06l0,0s0,0,0-.07,0,0,.07,0,0,0,0,0,0,0,0,0,.06,0,.06.08,0,0,0,.06,0,0,0,.06,0,0,.06.06,0,0,0,.08-.16,0-.23,0a.34.34,0,0,1-.09-.06l-.08-.05S7.78,14.74,7.79,14.72Zm0,6.47c-.06,0-.08-.07-.12-.09s-.27.06-.32-.13,0-.12-.06-.19-.09-.08,0-.15.24-.16.31,0,.09.11.16.14v0h0l0,0,0,0a.19.19,0,0,1,.08.13.73.73,0,0,0,.05.18S7.88,21.17,7.81,21.18Zm1.44,2.06a.1.1,0,0,1-.09-.16s0-.06.07-.07.08,0,.07.07l0,0s0,0,0,0S9.27,23.2,9.25,23.24Zm8.7,2.95a2.69,2.69,0,0,1-.91.2,1.74,1.74,0,0,0-.84.2,1.33,1.33,0,0,1-.75.29h-.21c-.06,0-.1.11-.15.15s-.24,0-.35-.06a.16.16,0,0,1,0,.1c-.05,0-.11,0-.16,0s-.07-.09-.13-.1-.23,0-.36,0a1.38,1.38,0,0,0-.63-.14,5.13,5.13,0,0,1-.71-.15,6,6,0,0,1-1.26-.47.84.84,0,0,1-.43-.43c0-.08,0-.18,0-.25s-.22-.07-.27-.09-.35,0-.31-.18.18-.07.27-.08.16-.2.05-.29-.31-.12-.3-.27.11-.47-.09-.53-.3-.07-.36-.22-.1-.14-.13-.23a.42.42,0,0,0-.22-.2c-.06,0-.22,0-.24-.06a.48.48,0,0,1,0-.17c0-.18.26.1.33.1s.27-.18.17-.3.12,0,.14-.06-.15,0-.18,0,0-.14,0-.19-.13,0-.18,0,0-.08,0-.1-.14.07-.21.1l-.19.07c-.05,0,0-.09,0-.12s0-.11,0-.17c.14,0,.14-.09.06-.17s-.06-.18-.1-.3-.14-.07-.19,0S9,22,8.91,22a.52.52,0,0,0-.24-.25c-.09-.06-.1-.17-.17-.25s-.21-.13-.27-.24a1.69,1.69,0,0,0-.16-.31c0-.05-.4-.33-.18-.39s.16,0,.25,0,.11-.12.12-.19.08,0,.11.07.1.05.15.08,0-.16,0-.22,0-.1,0-.13.14-.11.2-.13.15,0,.21.05a.33.33,0,0,0,.19,0h.1a.17.17,0,0,1,0-.08s.11,0,.16,0,.18-.15.2-.24a1.06,1.06,0,0,0,0-.41c0-.12-.06-.16.05-.22s0-.08.07-.12l.1-.12c.08-.11,0-.18,0-.3s.15-.18.21-.24-.22.3-.11.22,0,.24.12.17.65-.85.74-.88-.48.67-.44.66a7.35,7.35,0,0,0,.69-.71c.17-.21,0,.82.06.77a7,7,0,0,0,.25-.68c0-.06.18.48.21.53.26.41.24.59.32.6a6.75,6.75,0,0,0,.92-.06c.11,0-.48-.53.1-.9,0,0,.05.14.06.32a3.58,3.58,0,0,1,.17-.33.6.6,0,0,0,.09.15c.07-.15.21-.4.41-.83a4.39,4.39,0,0,1-.14,1.22.19.19,0,0,0,.14,0c.1,0,.49-1,.59-1a.43.43,0,0,1,.28,0,2.22,2.22,0,0,0,.25.12c.06,0,.17,0,.2.08s.07.05.13.07.08,0,.08,0,0,0,0,0,.08.06.12.07a1,1,0,0,1,.2.13,1.66,1.66,0,0,1,.31.35s.13.16.09.2-.09,0-.12,0a1.38,1.38,0,0,0-.19.09s-.07.09-.11.12-.23-.12-.3-.17-.05-.22-.13-.28a1.91,1.91,0,0,0-.42-.22,1,1,0,0,1-.23-.12.34.34,0,0,0-.15-.1c0,.12.12.18.19.23a.58.58,0,0,1,.16.26,1.3,1.3,0,0,0,.22.29s.08.07.11.11,0,.1,0,.14c-.15.06-.29-.26-.38-.34a.19.19,0,0,0-.16-.05c0,.06-.08.13,0,.17s0,.09,0,.13a1,1,0,0,0,.08.14s.09.07.12.12,0,.07,0,.11.11.16.19.11.05-.43.17-.26.08.54.27.45.08-.12.22-.07.14-.09.17,0,0,.07.12.11.06.11.06.17,0,.15.09.17.06.1.07.15c0,.23.38,0,.42.19s0,.09.07.11.06,0,.08,0,0,.11.15.14a.55.55,0,0,0,.45-.1s.06-.14.12-.16.15.08.16.13,0,.16.11.21a.53.53,0,0,1,.2.2c.1.21-.14.37-.06.57a.34.34,0,0,0,.09.12s0,.06,0,.08.12-.06.16,0-.14.27-.26.34-.07.28-.06.4.18-.1.28-.1,0,.21,0,.25a.47.47,0,0,1-.46.06s-.12-.07-.15,0-.09.13,0,.2.3.08.33.26-.16.2,0,.28a.71.71,0,0,1,.21.24c.08.11.23-.1.28,0,0-.09.09-.06.14-.07a.19.19,0,0,0,.13-.13c0-.11-.11-.16-.18-.22s0-.07,0-.12-.12-.12-.17-.19a.23.23,0,0,1,.07-.3c.15-.09.29.13.43.15s.33,0,.46.11.18.24.32.32.13,0,.14.13.1.05.17.11,0,.1.1.11a2.16,2.16,0,0,1-.36.35,1,1,0,0,0-.3.29c-.14.25,0,.57-.2.81s-.37.31-.45.57A.77.77,0,0,1,17.95,26.19Zm7.23-2.31a4.52,4.52,0,0,1-.67.64,7.12,7.12,0,0,1-.81.51,7.42,7.42,0,0,0-.77.55,8.18,8.18,0,0,1-1.87,1c-.34.11-.68.25-1,.34l-.34.08a.79.79,0,0,1-.18,0s-.22,0-.25,0a.73.73,0,0,1-.36.09.66.66,0,0,0-.32,0s-.2.05-.14,0,.2,0,.24,0a1,1,0,0,0,.3-.08l.37-.13a.71.71,0,0,0,.19-.07,1.37,1.37,0,0,1,.32-.09c.07,0,.12-.13.22-.1a.44.44,0,0,0,.13,0c.07,0,0,0,.06-.07s.08-.08.11,0,.16,0,.22-.06.07-.1.18-.09.16-.08.26-.1.18,0,.2-.05a1.08,1.08,0,0,0-.38.07,2,2,0,0,1-.38.15c-.13,0-.26,0-.39,0a3,3,0,0,0-.35.13.43.43,0,0,1-.33,0c-.11-.06,0-.15.07-.16s.22,0,.31-.07a.35.35,0,0,0,.11-.21s-.52,0-.37-.09a.56.56,0,0,1,.26-.1,1.15,1.15,0,0,1,.29-.06c.13,0,.21.1.33,0a1.21,1.21,0,0,1,.22-.16c.08,0,.18,0,.26,0s.08-.13.17-.15.26,0,.27-.13-.14-.14-.18-.2a2.1,2.1,0,0,0-.17-.22s-.16-.05-.15-.12.17-.1.25-.12.2-.09.32-.06a.33.33,0,0,0,.28,0,1,1,0,0,1,.26-.14,2,2,0,0,1-.11.28c-.05.07-.14.12-.19.19s.15.31.19.16,0-.14.08-.18.16,0,.17-.09.12-.15.21-.16.19-.09.28-.08-.08.06-.07.09.34-.1.31-.17,0-.1.08-.13.08-.07.12-.08,0,.17.13.17a.39.39,0,0,0,.23-.09c.08-.06.09-.15.19-.19a1.32,1.32,0,0,0,.24-.11c.07,0,.14-.13.22-.13s.14,0,.17,0-.14.17-.17.2-.15.12-.07.17.15,0,.21-.05a.56.56,0,0,0,.22-.12c.05-.06.07-.14.14-.19a.52.52,0,0,0,.2-.2c0-.06,0-.12.08-.18s0-.12.06-.18.09,0,.12.05.08-.11.14-.14.1,0,.12-.08,0-.07,0-.1.19,0,.27-.07.1-.13.16-.12A1.87,1.87,0,0,1,25.18,23.88Zm-2-.66a.1.1,0,0,1,.1-.14s.1-.11.15-.1,0,0,.08,0,0-.08.07-.1.17.05.1.14a.28.28,0,0,1-.25.09C23.28,23.1,23.23,23.19,23.14,23.22Zm1-.47v0a.25.25,0,0,0,0-.15s-.08-.06-.13-.09-.06,0,0-.08a.36.36,0,0,1,.09-.11s.09,0,.14,0,.07-.07.1-.06,0,.22,0,.28,0,.23-.12.22v0Zm-.13-.1c.06.06,0,.14-.06.16s-.11,0-.18,0a.09.09,0,0,0,0,0h0c0-.08,0-.15.06-.17S24,22.6,24.05,22.65Zm2.17-1.79a2.16,2.16,0,0,0-.17.27c0,.11,0,.25-.12.34a1.55,1.55,0,0,0-.21.18s-.08.06-.1.12,0,.12,0,.18-.2.14-.3.21-.14.15-.23.21-.47.37-.63.32.16-.21.24-.26a.75.75,0,0,0,.12-.13c.06-.06.13-.09.18-.18s-.05-.32,0-.39.11,0,.19,0a.23.23,0,0,0,.1-.08.23.23,0,0,0-.12-.33c0-.11.25-.29.38-.25s0,.11,0,.17a.23.23,0,0,0,.18-.24.2.2,0,0,0-.1-.12c-.09,0-.1,0-.15,0s-.26,0-.39.09a.52.52,0,0,1-.35.08,0,0,0,0,1,0,0h.11c0-.07.15-.11.21-.15l.1-.05.09-.07c.1-.06.26-.24.38-.25s.1.18.22.16.08,0,.11-.09a.15.15,0,0,0,0-.15c.22,0,.08-.17.21-.26s.12,0,.2,0v0s.06,0,.08,0C26.53,20.35,26.31,20.71,26.22,20.86Zm-.51-.68s-.1,0-.11-.09,0-.07.06-.1,0-.1.08-.09h.06l.08,0A.5.5,0,0,0,26,20a.11.11,0,0,1,0,.14.2.2,0,0,1-.09.07s-.1,0-.11,0h0Zm2-1.37c-.16.33-.39.9-.82.95-.13,0-.47.38-.51.32s-.13-.3-.3-.36,0-.12-.11-.17-.08-.12-.1-.2a.43.43,0,0,0-.14,0c-.09.05-.15.15-.23.21s-.15-.06-.14-.14-.16.21-.23.1,0-.21,0-.3-.09-.24-.19-.12a.32.32,0,0,1-.23.12c-.1,0-.17.09-.28.09s-.23.12-.29.3-.28.18-.38.32-.21.39-.34.28.17-.34.17-.47-.09-.16-.11-.26,0-.12-.07-.16a.42.42,0,0,0,.05-.33c-.06-.13-.28,0-.33.07s-.18.33-.3.18,0-.08-.07-.08a.1.1,0,0,0-.09.06c-.09,0-.05-.1,0-.16a2.92,2.92,0,0,1,.23-.5c.13-.16.33-.26.45-.43s.11-.18.05-.25-.06,0-.07-.07,0-.09,0-.13a.21.21,0,0,1-.14,0s0-.09,0-.14-.12.09-.19.08-.06,0-.13,0,.1-.21.16-.3a1.35,1.35,0,0,0,.12-.17c.07-.15-.08-.26-.05-.41s.21-.2.35-.19.3.15.45.1a.29.29,0,0,0,.14-.35c0-.14-.22-.17-.21-.34a1.07,1.07,0,0,0,0-.28c0-.08-.05-.15-.07-.22s.13-.24.19-.39,0-.28.18-.19.07.26.18.35.31,0,.44,0,.28-.11.34-.23-.07-.34.13-.44.29-.15.38-.12.11.13.18.19a.67.67,0,0,1,.11-.22c.11-.14.27-.24.26-.43s0-.22-.07-.41S26,13,26.13,13c.31.05.05-.66,0-.78a.3.3,0,0,0-.13-.12c-.13-.12-.21.08-.29,0a.94.94,0,0,1-.1-.49,3.69,3.69,0,0,1-.13-.46c0-.08-.49-.63-.39-.7s.83,0,.79,0-.07-.37-.33-.47-.27-.24-.42-.32-.39-.27-.12-.29,0-.27-.12-.3-.09.26-.18,0c0,0-.4-.52-.4-.47s.08.18.07.26S24,8.62,24,8.64s-.31-.25-.34-.34.11-.18.11-.18,0-.17-.07-.24-.23-.1-.24-.23-.1-.21,0-.2a3.06,3.06,0,0,1,.39.24c.23.11.17.18.3.31a3.39,3.39,0,0,1,.67.51s.37.4.38.26A1.09,1.09,0,0,0,25,8.35s-.22-.28-.23-.31-.36-.42-.27-.4.63.39.6.53.16.16.19.24a3.18,3.18,0,0,0,.38.34A1.51,1.51,0,0,1,26,9c.07,0,.12,0,.15.12a1.31,1.31,0,0,0,.13.29,1.71,1.71,0,0,1,.19.41,1.83,1.83,0,0,1,0,.59c0,.05-.09.12-.09.19s0,.24,0,.34.21.36.17.45,0,.14.05.28-.05.14,0,.26c-.19,0,0,.11-.13.15s-.14,0-.24.07.39.64.47,0a.58.58,0,0,1,.36-.38c.09,0,.17.13.2,0s-.08-.2,0-.22.24.65.31.7a.75.75,0,0,1,.31.52c0,.24.46.61.37.84a2.57,2.57,0,0,0,0,.79,3.52,3.52,0,0,1,.09.53c0,.11-.07.37,0,.46s0,.5,0,.72a2.4,2.4,0,0,1-.15,1.21A4.8,4.8,0,0,1,27.74,18.81Z"/></g></svg>