<?xml version="1.0" encoding="utf-8"?>
<!-- Generator: Adobe Illustrator 19.2.1, SVG Export Plug-In . SVG Version: 6.00 Build 0)  -->
<svg version="1.1" id="Layer_1" xmlns="http://www.w3.org/2000/svg" xmlns:xlink="http://www.w3.org/1999/xlink" x="0px" y="0px"
	 viewBox="0 0 40 40" style="enable-background:new 0 0 40 40;" xml:space="preserve">
<style type="text/css">
	.st0{fill:#C49270;}
	.st1{fill:none;stroke:#A67757;stroke-width:1.1557;stroke-linecap:round;stroke-miterlimit:10;}
	.st2{fill:#A67757;stroke:#A67757;stroke-width:0.25;stroke-miterlimit:10;}
	.st3{fill:#2C3C48;}
	.st4{clip-path:url(#SVGID_2_);}
	.st5{clip-path:url(#SVGID_4_);fill:#FFFFFF;}
	.st6{clip-path:url(#SVGID_6_);}
	.st7{clip-path:url(#SVGID_8_);fill:#FFFFFF;}
	.st8{fill:#A67757;}
	.st9{fill:none;}
	.st10{fill:#121212;}
	.st11{opacity:0.3;fill:#B4E4FA;}
	.st12{fill:none;stroke:#2C3C48;stroke-width:0.8608;stroke-linecap:round;stroke-miterlimit:10;}
	.st13{fill:none;stroke:#2C3C48;stroke-width:1.0994;stroke-linecap:round;stroke-miterlimit:10;}
	.st14{fill:#FFFFFF;}
</style>
<path class="st0" d="M20.1,6.5c-7.4,0-13.3,5.7-13.3,12.6l0.8,6.7c0,6.5,5.6,11.8,12.5,11.8c6.9,0,12.5-5.3,12.5-11.8l0.8-6.7
	C33.4,12.2,27.5,6.5,20.1,6.5"/>
<path class="st1" d="M21.8,25.5c-0.8,1.2-2.7,1.2-3.4,0"/>
<path class="st0" d="M35.8,22.8c0,1.5-1.3,2.7-2.8,2.7c-1.6,0-2.8-1.2-2.8-2.7c0-1.5,1.3-2.7,2.8-2.7C34.5,20.1,35.8,21.3,35.8,22.8
	"/>
<path class="st0" d="M10.1,22.8c0,1.5-1.3,2.7-2.8,2.7c-1.6,0-2.8-1.2-2.8-2.7c0-1.5,1.3-2.7,2.8-2.7C8.9,20.1,10.1,21.3,10.1,22.8"
	/>
<path class="st2" d="M15.1,17.4c0,0,0,0-0.1,0c-0.1,0-0.2,0-0.3-0.1c-0.3,0-0.7-0.1-1-0.1c-0.4,0-0.7,0.1-1,0.1
	c-0.1,0-0.1,0-0.1,0.1c0,0-0.1,0-0.1,0.1c0,0-0.1,0.1-0.1,0.1l-0.1,0.1c-0.2,0.1-0.4,0.1-0.6-0.1c-0.1-0.2-0.1-0.4,0.1-0.5
	c0,0,0.1,0,0.1-0.1c0,0,0.1-0.1,0.2-0.1c0.1,0,0.1-0.1,0.2-0.1c0.3-0.2,0.8-0.3,1.2-0.3c0.4-0.1,0.9,0,1.2,0c0.2,0,0.3,0,0.4,0
	c0.1,0,0.2,0,0.2,0c0.3,0,0.5,0.3,0.5,0.6C15.7,17.2,15.4,17.4,15.1,17.4C15.1,17.4,15.1,17.4,15.1,17.4L15.1,17.4z"/>
<path class="st2" d="M25.1,16.3c0,0,0.1,0,0.2,0c0.1,0,0.2,0,0.4,0c0.3,0,0.8,0,1.2,0c0.4,0,0.9,0.2,1.2,0.3c0.1,0,0.2,0.1,0.2,0.1
	c0.1,0,0.1,0.1,0.2,0.1c0.1,0.1,0.1,0.1,0.1,0.1c0.2,0.1,0.2,0.4,0,0.6c-0.1,0.2-0.4,0.2-0.5,0.1l-0.1-0.1c0,0,0,0-0.1-0.1
	c0,0-0.1,0-0.1-0.1c0,0-0.1,0-0.1-0.1c-0.2-0.1-0.6-0.1-1-0.1c-0.4,0-0.8,0-1,0.1c-0.1,0-0.3,0-0.3,0.1c-0.1,0-0.1,0-0.1,0l0,0
	c-0.3,0.1-0.6-0.1-0.7-0.4C24.6,16.6,24.7,16.3,25.1,16.3C25.1,16.3,25.1,16.3,25.1,16.3"/>
<path class="st3" d="M15,20.2c-0.1-0.6-0.6-1-1.2-1c-0.7,0-1.2,0.4-1.2,1h0v1.5h0v0c0,0.6,0.6,1.1,1.3,1.1c0.7,0,1.3-0.5,1.3-1.1
	c0,0,0,0,0,0h0L15,20.2L15,20.2z"/>
<path class="st3" d="M27.8,20.2c-0.1-0.6-0.6-1-1.2-1c-0.7,0-1.2,0.4-1.2,1h0v1.5h0v0c0,0.6,0.6,1.1,1.3,1.1c0.7,0,1.3-0.5,1.3-1.1
	v0L27.8,20.2L27.8,20.2z"/>
<g>
	<defs>
		<rect id="SVGID_1_" x="12.9" y="20.1" width="0.6" height="1"/>
	</defs>
	<clipPath id="SVGID_2_">
		<use xlink:href="#SVGID_1_"  style="overflow:visible;"/>
	</clipPath>
	<g class="st4">
		<defs>
			<rect id="SVGID_3_" x="12.9" y="20.1" width="0.6" height="1"/>
		</defs>
		<clipPath id="SVGID_4_">
			<use xlink:href="#SVGID_3_"  style="overflow:visible;"/>
		</clipPath>
		<path class="st5" d="M13.5,20.4c0-0.2-0.1-0.3-0.3-0.3c-0.2,0-0.3,0.1-0.3,0.3h0v0.4h0v0c0,0.2,0.1,0.3,0.3,0.3
			c0.2,0,0.3-0.1,0.3-0.3v0L13.5,20.4L13.5,20.4z"/>
	</g>
</g>
<g>
	<defs>
		<rect id="SVGID_5_" x="25.8" y="20.1" width="0.6" height="1"/>
	</defs>
	<clipPath id="SVGID_6_">
		<use xlink:href="#SVGID_5_"  style="overflow:visible;"/>
	</clipPath>
	<g class="st6">
		<defs>
			<rect id="SVGID_7_" x="25.8" y="20.1" width="0.6" height="1"/>
		</defs>
		<clipPath id="SVGID_8_">
			<use xlink:href="#SVGID_7_"  style="overflow:visible;"/>
		</clipPath>
		<path class="st7" d="M26.4,20.4c0-0.2-0.1-0.3-0.3-0.3c-0.2,0-0.3,0.1-0.3,0.3h0v0.4h0v0c0,0.2,0.1,0.3,0.3,0.3
			c0.2,0,0.3-0.1,0.3-0.3v0L26.4,20.4L26.4,20.4z"/>
	</g>
</g>
<path class="st8" d="M19,36.4c-2.9,0-5.5-0.8-7.7-2.2c2.3,2.1,5.4,3.5,8.8,3.5c6.9,0,12.5-5.3,12.5-11.9l0-0.6
	C31.7,31.5,26,36.4,19,36.4"/>
<rect x="0.3" y="0" class="st9" width="39.7" height="37.7"/>
<path class="st10" d="M5.9,13.6c0-4.7,4.2-11,13.7-11.2c0.3,0,0.5,0.2,0.6,0.4l1,7.3c0,0.3,0.1,0.7-0.3,0.6
	c-2.4-0.9-10.2-1.8-11.3,4.1c-0.6,3.2-1.6,4.5-3.1,4.8c-0.4,0.1-0.7-0.2-0.7-0.5V13.6z"/>
<path class="st10" d="M34.4,13.6c0-3.4-2.3-7.7-7.2-9.9c-0.7-0.3,1.2-1.1,0.3-1.3c-0.7-0.2-4.1,0.2-4.9,0.1c-0.8-0.1-2-0.1-2.8-0.1
	c0,0-1.1,5.8-1.2,6.8c0,0.1,0,0.2,0.1,0.2c0.9,0.4,6.1,2.6,7.8,2.8c0.9,0.1-2.2-1.8-1.1-1.6c2.6,0.6,4.8,2.3,5.7,4.5
	c1.1,2.5,1.4,4.6,2.9,4.9c0.2,0,0.5-0.1,0.5-0.3V13.6z"/>
<g>
	<path class="st11" d="M16.3,24.7c0.8-0.1,1.4-0.8,1.4-1.6l0.6-3c0-1-0.8-1.8-1.9-1.8h-4.8c-0.6,0-1.1,0.3-1.5,0.7L16.3,24.7z"/>
	<path class="st12" d="M16.1,24.7H12c-1.3,0-1.4-1.1-1.6-1.7c-0.2-0.6-0.5-2.2-0.6-3c-0.1-0.8,0.8-1.8,1.9-1.8h4.8
		c1,0,2,0.8,1.9,1.8c-0.1,1-0.5,2.6-0.6,3C17.5,24,17,24.7,16.1,24.7z"/>
	<path class="st11" d="M28.8,24.7c0.8-0.1,1.4-0.8,1.4-1.6l0.6-3c0-1-0.8-1.8-1.9-1.8h-4.8c-0.6,0-1.1,0.3-1.5,0.7L28.8,24.7z"/>
	<path class="st12" d="M28.6,24.7h-4.1c-1.3,0-1.4-1.1-1.6-1.7c-0.2-0.6-0.5-2.2-0.6-3c-0.1-0.8,0.8-1.8,1.9-1.8h4.8
		c1,0,2,0.8,1.9,1.8c-0.1,1-0.5,2.6-0.6,3C30,24,29.5,24.7,28.6,24.7z"/>
	<line class="st13" x1="18.8" y1="20.2" x2="22" y2="20.2"/>
</g>
<g>
	<polygon class="st10" points="23.3,11 23.3,11 23.3,11 	"/>
	<path class="st10" d="M21.2,10.3l-6.1-1.9c0,0.4-0.1,0.8-0.1,1c0,0.1,0,0.2,0.1,0.2c1,0.4,6.2,2.7,7.9,2.9
		C23.8,12.6,21.3,10.7,21.2,10.3z"/>
</g>
<g>
	<polygon class="st10" points="20.1,11 20.1,11 20.1,11 	"/>
	<path class="st10" d="M18,10.3l-6.1-1.9c0,0.4-0.1,0.8-0.1,1c0,0.1,0,0.2,0.1,0.2c1,0.4,6.2,2.7,7.9,2.9
		C20.7,12.6,18.1,10.7,18,10.3z"/>
</g>
<g>
	<path class="st3" d="M24.5,29.1c-0.3,0-0.5,0-0.8-0.1c0,0,0,0,0,0l0,0c0,0-0.1,0-0.3,0.1c-0.2,0-0.5,0.1-0.8,0.1
		c-0.3,0-0.7,0.1-1.2,0.1c-0.4,0-0.9,0-1.3,0c-0.4,0-0.9,0-1.3,0c-0.4,0-0.8-0.1-1.2-0.1c-0.3,0-0.6-0.1-0.8-0.1
		c-0.2,0-0.3-0.1-0.3-0.1l0,0c0,0,0,0,0,0c-0.3,0-0.5,0-0.8,0.1c0,0,0,0-0.1,0c-0.1,0-0.1,0.1,0,0.2l0.1,0.1
		c0.2,0.3,0.4,0.5,0.6,0.7c0.2,0.2,0.4,0.4,0.6,0.5c0.4,0.3,0.7,0.5,1.1,0.7c0.1,0,0.2,0.1,0.3,0.1c0.6-0.4,1.2,0.1,1.9,0.1
		c0.7,0,1.3-0.5,1.9-0.1c0.1,0,0.2-0.1,0.3-0.1c0.4-0.2,0.7-0.4,1.1-0.7c0.2-0.2,0.4-0.3,0.6-0.5c0.2-0.2,0.4-0.4,0.6-0.7l0.1-0.1
		c0,0,0,0,0-0.1C24.6,29.2,24.6,29.1,24.5,29.1"/>
	<path class="st14" d="M16.5,29.1c0,0,0.1,0,0.3,0.1c0.2,0,0.5,0.1,0.8,0.1c0.3,0,0.7,0.1,1.2,0.1c0.4,0,0.9,0,1.3,0
		c0.4,0,0.9,0,1.3,0c0.4,0,0.8-0.1,1.2-0.1c0.3,0,0.6-0.1,0.8-0.1c0.2,0,0.3-0.1,0.3-0.1l0,0c0,0,0,0,0,0c-0.1,0-0.2,0-0.3,0l-1.1,0
		c-0.7,0-1.5,0-2.2,0c-0.7,0-1.5,0-2.2,0l-1.1,0C16.7,29,16.6,29.1,16.5,29.1C16.5,29.1,16.5,29.1,16.5,29.1L16.5,29.1z"/>
	<path class="st14" d="M17.5,31c0,0,2.5,1.7,5.1,0.1L17.5,31z"/>
</g>
</svg>
