<?xml version="1.0" encoding="utf-8"?>
<!-- Generator: Adobe Illustrator 19.2.1, SVG Export Plug-In . SVG Version: 6.00 Build 0)  -->
<svg version="1.1" id="Layer_1" xmlns="http://www.w3.org/2000/svg" xmlns:xlink="http://www.w3.org/1999/xlink" x="0px" y="0px"
	 viewBox="0 0 40 40" style="enable-background:new 0 0 40 40;" xml:space="preserve">
<style type="text/css">
	.st0{fill:#C49270;}
	.st1{fill:#A67757;}
	.st2{fill:#121212;}
	.st3{fill:#2C3C48;}
	.st4{fill:#FFFFFF;}
	.st5{fill:#A67757;stroke:#A67757;stroke-width:0.25;stroke-miterlimit:10;}
	.st6{opacity:0.3;fill:#B4E4FA;enable-background:new    ;}
</style>
<g id="Face">
	<path class="st0" d="M20.1,6.5c-7.4,0-13.3,5.7-13.3,12.6l0.8,6.7c0,6.5,5.6,11.8,12.5,11.8s12.5-5.3,12.5-11.8l0.8-6.7
		C33.4,12.2,27.5,6.5,20.1,6.5"/>
	<path class="st1" d="M20.1,27C20,27,20,27,20.1,27c-1,0-1.7-0.5-2.2-1.2c-0.2-0.3-0.1-0.6,0.2-0.8c0.3-0.2,0.6-0.1,0.8,0.2
		c0.2,0.4,0.6,0.6,1.1,0.6c0.5,0,1-0.2,1.3-0.6c0.2-0.3,0.5-0.3,0.8-0.2c0.3,0.2,0.3,0.5,0.2,0.8C21.8,26.5,21,27,20.1,27z"/>
	<path class="st0" d="M35.8,22.8c0,1.5-1.3,2.7-2.8,2.7c-1.6,0-2.8-1.2-2.8-2.7s1.3-2.7,2.8-2.7C34.5,20.1,35.8,21.3,35.8,22.8"/>
	<path class="st0" d="M10.1,22.8c0,1.5-1.3,2.7-2.8,2.7c-1.6,0-2.8-1.2-2.8-2.7s1.3-2.7,2.8-2.7C8.9,20.1,10.1,21.3,10.1,22.8"/>
	<path class="st1" d="M19,36.4c-2.9,0-5.5-0.8-7.7-2.2c2.3,2.1,5.4,3.5,8.8,3.5c6.9,0,12.5-5.3,12.5-11.9v-0.6
		C31.7,31.5,26,36.4,19,36.4"/>
</g>
<path class="st2" d="M34.4,13.6c0-3.4-2.3-7.7-7.2-9.9c-0.7-0.3,1.2-1.1,0.3-1.3c-0.7-0.2-4.1,0.2-4.9,0.1c-0.8-0.1-2-0.1-2.8-0.1
	c0,0,0,0,0,0c-0.1,0-0.1,0-0.2,0C10.1,2.6,5.9,8.9,5.9,13.6l-0.1,5.5c0,0.3,0.3,0.6,0.7,0.5C8,19.3,9,18,9.6,14.8
	c0.5-2.6,2.2-3.8,4.2-4.4c2,0.8,4.8,2,6,2.1c0.6,0.1-0.3-0.7-1-1.4c1.6,0.7,3.4,1.3,4.2,1.4c0.7,0.1-1.2-1.4-1.7-2
	c1.9,0.7,4.2,1.6,5.2,1.7c0.9,0.1-2.2-1.8-1.1-1.6c2.6,0.6,4.8,2.3,5.7,4.5c1.1,2.5,1.4,4.6,2.9,4.9c0.2,0,0.5-0.1,0.5-0.3
	L34.4,13.6z"/>
<g id="Eye_ball">
	<path class="st3" d="M15,20.2c-0.1-0.6-0.6-1-1.2-1c-0.7,0-1.2,0.4-1.2,1l0,0v1.5l0,0l0,0c0,0.6,0.6,1.1,1.3,1.1s1.3-0.5,1.3-1.1
		l0,0l0,0L15,20.2L15,20.2z"/>
	<path class="st3" d="M27.8,20.2c-0.1-0.6-0.6-1-1.2-1c-0.7,0-1.2,0.4-1.2,1l0,0v1.5l0,0l0,0c0,0.6,0.6,1.1,1.3,1.1
		c0.7,0,1.3-0.5,1.3-1.1l0,0L27.8,20.2L27.8,20.2z"/>
	<path class="st4" d="M13.5,20.4c0-0.2-0.1-0.3-0.3-0.3s-0.3,0.1-0.3,0.3l0,0v0.4l0,0l0,0c0,0.2,0.1,0.3,0.3,0.3s0.3-0.1,0.3-0.3
		l0,0V20.4L13.5,20.4z"/>
	<path class="st4" d="M26.4,20.4c0-0.2-0.1-0.3-0.3-0.3c-0.2,0-0.3,0.1-0.3,0.3l0,0v0.4l0,0l0,0c0,0.2,0.1,0.3,0.3,0.3
		c0.2,0,0.3-0.1,0.3-0.3l0,0V20.4L26.4,20.4z"/>
</g>
<g id="Eye_brow">
	<path class="st5" d="M15.1,17.4c0,0,0,0-0.1,0s-0.2,0-0.3-0.1c-0.3,0-0.7-0.1-1-0.1c-0.4,0-0.7,0.1-1,0.1c-0.1,0-0.1,0-0.1,0.1
		c0,0-0.1,0-0.1,0.1l-0.1,0.1l-0.1,0.1c-0.2,0.1-0.4,0.1-0.6-0.1c-0.1-0.2-0.1-0.4,0.1-0.5c0,0,0.1,0,0.1-0.1c0,0,0.1-0.1,0.2-0.1
		c0.1,0,0.1-0.1,0.2-0.1c0.3-0.2,0.8-0.3,1.2-0.3c0.4-0.1,0.9,0,1.2,0c0.2,0,0.3,0,0.4,0c0.1,0,0.2,0,0.2,0c0.3,0,0.5,0.3,0.5,0.6
		C15.7,17.2,15.4,17.4,15.1,17.4L15.1,17.4L15.1,17.4z"/>
	<path class="st5" d="M25.1,16.3c0,0,0.1,0,0.2,0s0.2,0,0.4,0c0.3,0,0.8,0,1.2,0c0.4,0,0.9,0.2,1.2,0.3c0.1,0,0.2,0.1,0.2,0.1
		c0.1,0,0.1,0.1,0.2,0.1c0.1,0.1,0.1,0.1,0.1,0.1c0.2,0.1,0.2,0.4,0,0.6c-0.1,0.2-0.4,0.2-0.5,0.1L28,17.5c0,0,0,0-0.1-0.1
		c0,0-0.1,0-0.1-0.1c0,0-0.1,0-0.1-0.1c-0.2-0.1-0.6-0.1-1-0.1s-0.8,0-1,0.1c-0.1,0-0.3,0-0.3,0.1c-0.1,0-0.1,0-0.1,0l0,0
		c-0.3,0.1-0.6-0.1-0.7-0.4C24.6,16.6,24.7,16.3,25.1,16.3L25.1,16.3"/>
</g>
<g id="Glassed">
	<path class="st6" d="M16.3,24.7c0.8-0.1,1.4-0.8,1.4-1.6l0.6-3c0-1-0.8-1.8-1.9-1.8h-4.8c-0.6,0-1.1,0.3-1.5,0.7L16.3,24.7z"/>
	<path class="st6" d="M28.8,24.7c0.8-0.1,1.4-0.8,1.4-1.6l0.6-3c0-1-0.8-1.8-1.9-1.8h-4.8c-0.6,0-1.1,0.3-1.5,0.7L28.8,24.7z"/>
	<path class="st3" d="M30.8,18.6c-0.5-0.5-1.1-0.8-1.8-0.8h-4.8c-0.7,0-1.3,0.3-1.8,0.8c-0.3,0.3-0.5,0.7-0.5,1h-3.1
		c0-0.4-0.2-0.8-0.5-1.1c-0.5-0.5-1.1-0.8-1.8-0.8h-4.8c-0.7,0-1.3,0.3-1.8,0.8c-0.4,0.4-0.6,1-0.5,1.4c0.1,0.8,0.4,2.4,0.6,3.1
		c0,0.1,0,0.2,0.1,0.2c0.2,0.6,0.5,1.7,1.9,1.7h4.1c1,0,1.7-0.7,2.1-2c0.3-1.1,0.4-1.8,0.5-2.4c0,0,0,0,0.1,0H22
		c0.1,0.8,0.4,1.9,0.5,2.4c0,0.1,0,0.2,0.1,0.2c0.2,0.6,0.5,1.7,1.9,1.7h4.1c1,0,1.7-0.7,2.1-2c0.2-0.9,0.5-2.2,0.6-3.1
		C31.4,19.5,31.2,19,30.8,18.6z M17.4,22.9c-0.4,1.2-0.9,1.4-1.3,1.4H12c-0.7,0-0.9-0.4-1.1-1.1c0-0.1-0.1-0.2-0.1-0.3
		c-0.2-0.5-0.5-2.1-0.6-2.9c0-0.2,0.1-0.5,0.3-0.8c0.3-0.3,0.7-0.5,1.2-0.5h4.8c0.4,0,0.9,0.2,1.2,0.5c0.2,0.2,0.3,0.4,0.3,0.8
		C17.9,20.4,17.8,21.3,17.4,22.9z M29.9,22.9c-0.4,1.2-0.9,1.4-1.3,1.4h-4.1c-0.7,0-0.9-0.4-1.1-1.1c0-0.1-0.1-0.2-0.1-0.3
		c-0.2-0.5-0.5-2.1-0.6-2.9c0-0.2,0.1-0.5,0.3-0.8c0.3-0.3,0.7-0.5,1.2-0.5H29c0.4,0,0.9,0.2,1.2,0.5c0.2,0.2,0.3,0.4,0.3,0.8
		C30.4,20.6,30.2,21.6,29.9,22.9z"/>
</g>
<g id="Mouth">
	<path class="st3" d="M24.5,29.1c-0.3,0-0.5,0-0.8-0.1l0,0l0,0c0,0-0.1,0-0.3,0.1c-0.2,0-0.5,0.1-0.8,0.1s-0.7,0.1-1.2,0.1
		c-0.4,0-0.9,0-1.3,0s-0.9,0-1.3,0s-0.8-0.1-1.2-0.1c-0.3,0-0.6-0.1-0.8-0.1c-0.2,0-0.3-0.1-0.3-0.1l0,0l0,0c-0.3,0-0.5,0-0.8,0.1
		c0,0,0,0-0.1,0s-0.1,0.1,0,0.2l0.1,0.1c0.2,0.3,0.4,0.5,0.6,0.7c0.2,0.2,0.4,0.4,0.6,0.5c0.4,0.3,0.7,0.5,1.1,0.7
		c0.1,0,0.2,0.1,0.3,0.1c0.6-0.4,1.2,0.1,1.9,0.1c0.7,0,1.3-0.5,1.9-0.1c0.1,0,0.2-0.1,0.3-0.1c0.4-0.2,0.7-0.4,1.1-0.7
		c0.2-0.2,0.4-0.3,0.6-0.5s0.4-0.4,0.6-0.7l0.1-0.1c0,0,0,0,0-0.1C24.6,29.2,24.6,29.1,24.5,29.1"/>
	<path class="st4" d="M17.5,31c0,0,2.5,1.7,5.1,0.1L17.5,31z"/>
	<path class="st4" d="M16.5,29.1c0,0,0.1,0,0.3,0.1c0.2,0,0.5,0.1,0.8,0.1s0.7,0.1,1.2,0.1c0.4,0,0.9,0,1.3,0s0.9,0,1.3,0
		s0.8-0.1,1.2-0.1c0.3,0,0.6-0.1,0.8-0.1c0.2,0,0.3-0.1,0.3-0.1l0,0l0,0c-0.1,0-0.2,0-0.3,0h-1.1c-0.7,0-1.5,0-2.2,0s-1.5,0-2.2,0
		h-1.1C16.7,29,16.6,29.1,16.5,29.1L16.5,29.1L16.5,29.1z"/>
</g>
</svg>
