<svg xmlns="http://www.w3.org/2000/svg" viewBox="0 0 32 32"><defs><style>.cls-1{fill-rule:evenodd;}</style></defs><title>firefox</title><g id="Menu-icons"><g id="panaroma"><path class="cls-1" d="M4.08,13.83H19.25a1.08,1.08,0,0,0,1.08-1.08V4.08A1.08,1.08,0,0,0,19.25,3H4.08A1.08,1.08,0,0,0,3,4.08v8.67A1.08,1.08,0,0,0,4.08,13.83ZM27.92,3H23.58A1.08,1.08,0,0,0,22.5,4.08v8.67a1.08,1.08,0,0,0,1.08,1.08h4.33A1.08,1.08,0,0,0,29,12.75V4.08A1.08,1.08,0,0,0,27.92,3ZM10.58,16H4.08A1.08,1.08,0,0,0,3,17.08V27.92A1.08,1.08,0,0,0,4.08,29h6.5a1.08,1.08,0,0,0,1.08-1.08V17.08A1.08,1.08,0,0,0,10.58,16Zm17.33,0h-13a1.08,1.08,0,0,0-1.08,1.08V27.92A1.08,1.08,0,0,0,14.92,29h13A1.08,1.08,0,0,0,29,27.92V17.08A1.08,1.08,0,0,0,27.92,16Z"/></g></g></svg>