<svg xmlns="http://www.w3.org/2000/svg" viewBox="0 0 32 32"><defs><style>.cls-1{fill-rule:evenodd;}</style></defs><title>permission</title><g id="Permission-icons"><g id="permissions"><path class="cls-1" d="M30.5,2H2.5a1,1,0,0,0-1,1V29a1,1,0,0,0,1,1h28a1,1,0,0,0,1-1V3A1,1,0,0,0,30.5,2ZM12.3,12.43,8.56,19.51a1,1,0,0,1-.06.08,1,1,0,0,1-.13.2,1,1,0,0,1-1.41,0L4.8,17.63a1,1,0,1,1,1.41-1.41l1.2,1.2,3.12-5.91a1,1,0,1,1,1.77.93ZM29.5,28h-14V4h14ZM19,19.54a1,1,0,0,0,1.41,0l2.12-2.12,2.12,2.12A1,1,0,1,0,26,18.12L23.91,16,26,13.88a1,1,0,1,0-1.41-1.41L22.5,14.59l-2.12-2.12A1,1,0,0,0,19,13.88L21.09,16,19,18.12A1,1,0,0,0,19,19.54Z"/></g></g></svg>