<svg xmlns="http://www.w3.org/2000/svg" viewBox="0 0 32 32"><defs><style>.cls-1{fill-rule:evenodd;}</style></defs><title>firefox</title><g id="General-icons"><path class="cls-1" d="M29.09,12H27.23V10.11a1.86,1.86,0,0,0-1.86-1.86V3.81a.93.93,0,0,0-.93-.93H7.65a.93.93,0,0,0-.93.93V8.25a1.86,1.86,0,0,0-1.86,1.86V12H3a1.86,1.86,0,0,0-1.86,1.86v9.32A1.86,1.86,0,0,0,3,25H6.72L4.85,28.76H27.23L25.36,25h3.73A1.86,1.86,0,0,0,31,23.17V13.84A1.86,1.86,0,0,0,29.09,12ZM6.72,25V23.17h.93Zm.93-7.46H5.79a.93.93,0,0,1,0-1.86H7.65a.93.93,0,0,1,0,1.86Zm.93,9.32,1.66-3.73h11.6L23.5,26.9ZM23.5,13.38a.47.47,0,0,1-.47.47H9a.47.47,0,0,1-.47-.47V5.21A.47.47,0,0,1,9,4.74H23a.47.47,0,0,1,.47.47ZM25.36,25l-.93-1.86h.93Z"/></g></svg>