<svg xmlns="http://www.w3.org/2000/svg" viewBox="0 0 32 32"><defs><style>.cls-1{fill-rule:evenodd;}</style></defs><title>firefox</title><g id="ReaderMode-icons"><g id="reader-mode"><path class="cls-1" d="M11.56,14.4H8a.87.87,0,1,0,0,1.74h3.55a.87.87,0,1,0,0-1.74Zm0,3.55H8a.87.87,0,1,0,0,1.74h3.55a.87.87,0,1,0,0-1.74Zm0-7.13H8a.87.87,0,1,0,0,1.74h3.55a.87.87,0,1,0,0-1.74ZM29.14,5.49H21.32c-2.31,0-5.15.87-5.32,4-.18-3.13-3-4-5.32-4H2.86A1.17,1.17,0,0,0,1.8,6.71V23.77A1.31,1.31,0,0,0,2.86,25h7.81c2.84,0,5,1.74,5.32,4,.35-2.26,2.48-4,5.32-4h7.81c.71,0,1.06-.7,1.06-1.39V6.71A1.17,1.17,0,0,0,29.14,5.49Zm-2.48,16H21.32c-2.84,0-5.15,1.39-5.32,3.83-.18-2.44-2.48-3.83-5.32-3.83H5.35V9h6.21c2,0,4.44,2.61,4.44,4.87C16,11.58,18.48,9,20.44,9h6.21Z"/></g></g></svg>