<svg xmlns="http://www.w3.org/2000/svg" viewBox="0 0 32 32"><defs><style>.cls-1{fill-rule:evenodd;}</style></defs><title>firefox</title><g id="Navigation-icons"><polygon class="cls-1" points="28.37 25.98 28.37 24.28 28.37 24.28 19.87 24.28 19.87 24.28 19.87 24.28 19.87 25.98 21.27 25.98 21.57 26.34 21.57 27.68 22.67 27.68 23.27 28.4 23.27 29.38 24.07 29.38 24.12 29.43 24.16 29.38 24.97 29.38 24.97 28.4 25.56 27.68 26.67 27.68 26.67 26.34 26.96 25.98 28.37 25.98"/></g><g id="Action-icons"><path class="cls-1" d="M18.05,2.83a9.68,9.68,0,0,0-7.72,15.54L2.22,26.47l1.87,1.87,8.11-8.11A9.69,9.69,0,1,0,18.05,2.83Zm0,16.84a7.15,7.15,0,1,1,7.15-7.15A7.15,7.15,0,0,1,18.05,19.66Z"/></g></svg>