<svg xmlns="http://www.w3.org/2000/svg" viewBox="0 0 32 32"><title>firefox</title><g id="General-icons"><path d="M23.34,28.59,22,25.28a10.58,10.58,0,0,0,3-3l3.3,1.4a1.12,1.12,0,0,0,1.46-.59l.87-2A1.12,1.12,0,0,0,30,19.61l-3.28-1.39a11.16,11.16,0,0,0,0-4.22l3.31-1.34a1.12,1.12,0,0,0,.61-1.45l-.83-2.06a1.11,1.11,0,0,0-1.45-.61l-3.3,1.34a10.57,10.57,0,0,0-3-3l1.4-3.29A1.11,1.11,0,0,0,23,2.12l-2-.87a1.12,1.12,0,0,0-1.46.59L18.06,5.13a11.18,11.18,0,0,0-4.22,0L12.5,1.79a1.11,1.11,0,0,0-1.45-.61L9,2a1.11,1.11,0,0,0-.61,1.45l1.34,3.3a10.57,10.57,0,0,0-3,3L3.42,8.34A1.12,1.12,0,0,0,2,8.93L1.1,11a1.12,1.12,0,0,0,.59,1.46L5,13.82a11.12,11.12,0,0,0,0,4.22L1.63,19.38A1.12,1.12,0,0,0,1,20.83l.84,2.06a1.11,1.11,0,0,0,1.45.61l3.3-1.34a10.57,10.57,0,0,0,3,3l-1.4,3.3a1.11,1.11,0,0,0,.59,1.45l2.05.87a1.12,1.12,0,0,0,1.46-.59l1.39-3.28a11.19,11.19,0,0,0,4.22,0l1.34,3.31a1.12,1.12,0,0,0,1.45.61L22.73,30A1.11,1.11,0,0,0,23.34,28.59Zm-11.05-9a5,5,0,1,1,7.14,0A5,5,0,0,1,12.29,19.59Z"/></g></svg>