<svg xmlns="http://www.w3.org/2000/svg" viewBox="0 0 32 32"><defs><style>.cls-1{fill-rule:evenodd;}</style></defs><title>permission</title><g id="Permission-icons"><g id="tracking-disable"><path class="cls-1" d="M16.46,1h0Zm.07,21.34-2.85,2.85a8.14,8.14,0,0,0,2.85,1.39Zm10.61-8.58c-.54,5.68-1.63,8-3.72,10.73a11.6,11.6,0,0,1-6.89,4.17,12,12,0,0,1-4.46-1.87l-1.64,1.64A13.88,13.88,0,0,0,16.54,31a13.73,13.73,0,0,0,8.63-5.06c2.54-3.31,3.66-6.18,4.21-12,.1-1.05.13-2.81.14-4.61l-2.25,2.25C27.24,12.53,27.2,13.27,27.15,13.76Zm2.1-12.63L27.56,2.81,16.5,1,5.32,2.85A2.14,2.14,0,0,0,3.5,4.95c0,2.53,0,7,.2,9,.43,4.57,1.23,7.32,2.8,9.9L1.63,28.75l2.13,2.13L31.38,3.25ZM16.54,13.84V5.43L7.89,6.87c0,3.69-.12,5,0,6.25.37,3.9.85,5.79,1.84,7.53L8.14,22.24c-1.14-2-1.82-4.37-2.21-8.48-.13-1.36-.2-4.52-.18-8.67A.14.14,0,0,1,5.87,5L16.54,3.2,25.67,4.7Z"/></g></g></svg>