<svg xmlns="http://www.w3.org/2000/svg" viewBox="0 0 32 32"><defs><style>.cls-1{fill-rule:evenodd;}</style></defs><title>permission</title><g id="Permission-icons"><g id="tracking"><path class="cls-1" d="M29.5,4.95a2.08,2.08,0,0,0-1.74-2.1L16.54,1,5.32,2.85A2.14,2.14,0,0,0,3.5,4.95c0,2.53,0,7,.2,9,.55,5.78,1.67,8.65,4.21,12A13.73,13.73,0,0,0,16.54,31a13.73,13.73,0,0,0,8.63-5.06c2.54-3.31,3.66-6.18,4.21-12C29.56,12,29.51,7.48,29.5,4.95Zm-2.35,8.81c-.54,5.68-1.63,8-3.72,10.73a11.6,11.6,0,0,1-6.89,4.17,11.6,11.6,0,0,1-6.89-4.17c-2.1-2.74-3.19-5-3.72-10.73-.13-1.36-.2-4.52-.18-8.67A.14.14,0,0,1,5.87,5L16.54,3.2,27.2,5a.14.14,0,0,1,.13.13C27.35,9.23,27.28,12.39,27.15,13.76ZM7.89,13.12c.51,5.38,1.22,6.93,3.2,9.53a10.23,10.23,0,0,0,5.45,3.92V5.43L7.89,6.87C7.89,10.57,7.77,11.89,7.89,13.12Z"/></g></g></svg>