<svg xmlns="http://www.w3.org/2000/svg" viewBox="0 0 32 32"><title>firefox</title><g id="ReaderMode-icons"><g id="type-controls"><path d="M16.61,21.57a1,1,0,0,1-.18-.31L11,6.48H8.29L2.86,21.7l-1.36.2v1.23H6.72V21.9l-1.36-.18a.45.45,0,0,1-.27-.17A.31.31,0,0,1,5,21.21l1.34-3.75h5.18l1.31,3.85a.26.26,0,0,1,0,.26.31.31,0,0,1-.2.15l-1.43.18v1.23h6.7V21.9L17,21.72A.75.75,0,0,1,16.61,21.57ZM6.81,16l2-5.82L10.93,16Zm22.62,5.89a.59.59,0,0,1-.38-.18.53.53,0,0,1-.15-.38V15.13A5.57,5.57,0,0,0,28.57,13a2.84,2.84,0,0,0-1-1.25,3.6,3.6,0,0,0-1.48-.6,10.88,10.88,0,0,0-1.9-.15,9.38,9.38,0,0,0-1.92.2,7.56,7.56,0,0,0-1.74.57,4,4,0,0,0-1.25.91,1.76,1.76,0,0,0-.48,1.21.78.78,0,0,0,.17.56,1,1,0,0,0,.37.25,1.33,1.33,0,0,0,.54.06h2.5v-2.3l.27,0,.33,0h.44a2.69,2.69,0,0,1,1.17.22,1.85,1.85,0,0,1,.7.56,1.87,1.87,0,0,1,.33.73,3.13,3.13,0,0,1,.07.74q0,.17,0,.33t0,.32v.3q-1.67.37-2.86.71a18.8,18.8,0,0,0-2,.69,6.59,6.59,0,0,0-1.32.7,3.09,3.09,0,0,0-.76.76,2.31,2.31,0,0,0-.35.86,5.34,5.34,0,0,0-.09,1,3.28,3.28,0,0,0,.25,1.3,2.92,2.92,0,0,0,.68,1,3,3,0,0,0,1,.63,3.43,3.43,0,0,0,1.24.22A5.2,5.2,0,0,0,23,23.19a9.33,9.33,0,0,0,2.66-1.27L26,23.13h4.5V22Zm-3.75-1a6.5,6.5,0,0,1-.72.27q-.32.09-.72.18a3.84,3.84,0,0,1-.79.08,1.69,1.69,0,0,1-1.6-1.09,2,2,0,0,1-.12-.7,2.38,2.38,0,0,1,.18-1,1.77,1.77,0,0,1,.63-.73,4.53,4.53,0,0,1,1.21-.57,17.85,17.85,0,0,1,1.93-.49Z"/></g></g></svg>