<svg xmlns="http://www.w3.org/2000/svg" viewBox="0 0 32 32"><defs><style>.cls-1{fill-rule:evenodd;}</style></defs><title>firefox</title><g id="General-icons"><path class="cls-1" d="M11.27,21.76h2.16l1.84-1.89h-4.5a23.15,23.15,0,0,1-.44-3.78h5.08v3.63L17.3,17.8V16.1H19l1.84-1.89H17.3V10.44h4.64a22.17,22.17,0,0,1,.33,2.28L23.94,11c0-.18-.05-.38-.09-.56h.63L27.88,7A14.15,14.15,0,1,0,10.33,28l1.58-4.5A15.06,15.06,0,0,1,11.27,21.76ZM26.06,8.55H23.4a16.11,16.11,0,0,0-1.65-3.8A11.75,11.75,0,0,1,26.06,8.55ZM17.3,3.47c.37,0,.73.09,1.09.15a9.65,9.65,0,0,1,3.05,4.93H17.3ZM15.41,14.21H10.33a23.15,23.15,0,0,1,.44-3.78h4.64ZM14.32,3.62c.36-.06.72-.12,1.09-.15V8.55H11.27A9.65,9.65,0,0,1,14.32,3.62ZM11,4.75a16.11,16.11,0,0,0-1.65,3.8H6.65A11.75,11.75,0,0,1,11,4.75ZM5.61,10.44H8.85a23.9,23.9,0,0,0-.44,3.78H4.66A11.66,11.66,0,0,1,5.61,10.44Zm0,9.44a11.66,11.66,0,0,1-.95-3.78H8.42a23.9,23.9,0,0,0,.44,3.78Zm1,1.89H9.31A16.11,16.11,0,0,0,11,25.56,11.75,11.75,0,0,1,6.65,21.76ZM28.51,10.32,16.85,21.93l4,4,11.66-11.6ZM15.15,23.61l-3.52,7.6,5.7-2.62.62.62.61-.08-.82-.73,1.5-.69Z"/></g></svg>