<svg xmlns="http://www.w3.org/2000/svg" viewBox="0 0 32 32"><defs><style>.cls-1{fill-rule:evenodd;}</style></defs><title>firefox</title><g id="Menu-icons"><g id="web-app"><path class="cls-1" d="M22,11.71C21.21,5,17.26.7,15.53.7S10,5,8.89,11.71L4.55,16.06V26.52H7.71l4.14-4.26c.39.4,1,2.08,1.48,2.35h4.39c.46-.27,1.1-1.95,1.49-2.35l4.34,4.26H26.5V16.13Zm-6.44-.25a14.07,14.07,0,0,0-2.53.23c.66-2,1.87-4.34,2.48-4.34s1.81,2.3,2.47,4.31A14.28,14.28,0,0,0,15.58,11.46Zm.67,14.48a4.22,4.22,0,0,1,.17,1.19,1.56,1.56,0,0,1-1,1.49,1.52,1.52,0,0,1-.86-1.49,4.24,4.24,0,0,1,.17-1.19h-1a9.73,9.73,0,0,0-.54,2,3.75,3.75,0,0,0,2.35,3.4A3.65,3.65,0,0,0,17.87,28a10.3,10.3,0,0,0-.54-2Z"/></g></g></svg>