<svg xmlns="http://www.w3.org/2000/svg" viewBox="0 0 32 32"><defs><style>.cls-1{fill-rule:evenodd;}</style></defs><title>firefox</title><g id="General-icons"><path class="cls-1" d="M9,16.22a8,8,0,0,1,4.31-7c1,1.08,3.24,4.05,3.24,4.05S16.5,6,18.9,2.1c-8.53-.93-14,1.16-14,1.16s2.87.31,3.67,1L8,4.74A10.88,10.88,0,0,0,3.8,10.19,14,14,0,0,0,9.44,27.72a21.24,21.24,0,0,0,2.45-2.16,11.93,11.93,0,0,0,2-2.82A7.6,7.6,0,0,1,9,16.22Z"/><path class="cls-1" d="M23.67,3.69a7.39,7.39,0,0,0-2.56,2.38c-.51.83-1.05,1.8-1.51,2.67a7.65,7.65,0,0,1,3.46,2.84,7.53,7.53,0,0,1,1.16,4.69A8.15,8.15,0,0,1,20,22.37a36.4,36.4,0,0,1-2.73-4.12A16.69,16.69,0,0,1,16,24.31,10.82,10.82,0,0,1,12.8,28.5a25.78,25.78,0,0,0,3.07.9,24.79,24.79,0,0,0,6.91.24l.19,0c2.43-.2,4.22-.51,4.22-.51a23.41,23.41,0,0,1-2.53-1.88,10.89,10.89,0,0,0,5.08-6.59A14,14,0,0,0,23.67,3.69Z"/></g></svg>