<?xml version="1.0" encoding="utf-8"?>
<!-- Generator: Adobe Illustrator 19.2.1, SVG Export Plug-In . SVG Version: 6.00 Build 0)  -->
<svg version="1.1" id="Layer_1" xmlns="http://www.w3.org/2000/svg" xmlns:xlink="http://www.w3.org/1999/xlink" x="0px" y="0px"
	 viewBox="0 0 32 32" style="enable-background:new 0 0 32 32;" xml:space="preserve">
<style type="text/css">
	.st0{fill:#2C3C48;}
	.st1{fill:#FFFFFF;}
</style>
<path class="st0" d="M28,16.4c-0.1,0-0.3,0.1-0.4,0.1h-0.2c-1.3-0.3-1.8-1.6-2.3-3c-0.2-0.5-0.4-1-0.6-1.5c-0.5-1.1-1.4-2.1-2.7-2.8
	c0,0.1,0,0.2-0.1,0.4c-0.2,0.3-0.4,0.4-0.8,0.4c-0.5,0-1.2-0.2-2.1-0.6c0,0.1,0,0.3,0,0.4c0,0.1-0.1,0.2-0.2,0.3
	c-0.2,0.1-0.3,0.2-0.5,0.1c-0.4,0-1-0.2-2-0.5c0,0,0,0.1,0,0.1c0,0.1-0.1,0.2-0.2,0.3c-0.1,0.1-0.3,0.2-0.6,0.1
	c-1-0.1-3.3-1-5.1-1.8c-1.7,0.5-2.7,1.6-3,3.2c-0.6,2.9-1.5,4.3-3.1,4.6c-0.1,0-0.2,0-0.3,0v0c-1.2,0.4-2,1.4-2,2.6
	c0,1.4,1.2,2.6,2.7,2.8C4.7,27.3,9.7,32,15.7,32c6.1,0,11.1-4.6,11.2-10.4c1.5-0.1,2.7-1.3,2.7-2.8C29.7,17.8,29,16.8,28,16.4z"/>
<path class="st1" d="M15.7,22.5L15.7,22.5c-0.8,0-1.4-0.4-1.9-1c-0.2-0.2-0.1-0.5,0.1-0.6c0.2-0.2,0.5-0.1,0.6,0.1
	c0.2,0.4,0.6,0.6,1.1,0.6l0,0c0.4,0,0.9-0.2,1.1-0.6c0.2-0.2,0.4-0.3,0.6-0.1s0.3,0.4,0.1,0.6C17.2,22.2,16.5,22.5,15.7,22.5z"/>
<g>
	<path class="st1" d="M11.5,12.1c-0.4,0-1.1,0-1.6,0c-0.4,0-0.8,0.2-1.1,0.3c-0.1,0-0.1,0.1-0.2,0.1l0,0c-0.1,0-0.1,0.1-0.2,0.1
		l-0.1,0.1c-0.2,0.2-0.2,0.5-0.1,0.7c0.1,0.2,0.3,0.2,0.4,0.2c0.1,0,0.2,0,0.3-0.1l0.2-0.1c0,0,0,0,0,0c0,0,0,0,0.1,0c0,0,0,0,0.1,0
		c0.2-0.1,0.4-0.1,0.8-0.1c0.4,0,0.7,0,0.9,0.1l0.4,0.1l0-0.2l0,0.2c0,0,0,0,0.1,0c0.4,0,0.8-0.3,0.8-0.6
		C12.3,12.5,11.9,12.1,11.5,12.1z"/>
	<path class="st1" d="M23.2,12.7L23,12.6c-0.1,0-0.1-0.1-0.2-0.2l0,0c0,0-0.1-0.1-0.2-0.1c-0.3-0.2-0.7-0.3-1.2-0.3
		c-0.4,0-1.6,0-1.6,0c-0.4,0.1-0.6,0.4-0.5,0.8s0.4,0.6,0.8,0.5l0.4-0.1c0.2,0,0.5-0.1,0.9-0.1c0.3,0,0.6,0,0.8,0.1l0.3,0.2
		c0.1,0.1,0.2,0.1,0.3,0.1c0.2,0,0.3-0.1,0.4-0.2C23.4,13.3,23.4,12.9,23.2,12.7z"/>
</g>
<path class="st1" d="M24.9,15.7c-0.4-0.4-1-0.7-1.6-0.7h-4.1c-0.6,0-1.2,0.3-1.6,0.7c-0.3,0.3-0.4,0.6-0.4,0.9h-2.6c0,0,0,0-0.1,0
	c0-0.4-0.2-0.6-0.4-0.9c-0.4-0.4-1-0.7-1.6-0.7H8.5c-0.6,0-1.2,0.3-1.6,0.7c-0.4,0.4-0.5,0.8-0.4,1.2C6.5,17.6,6.9,19,7,19.6
	c0,0.1,0,0.1,0,0.2c0.2,0.5,0.4,1.5,1.7,1.5h3.5c0.9,0,1.5-0.6,1.8-1.8v-0.1c0.1-0.4,0.3-1.3,0.4-2.1c0,0,0.1,0,0.1,0h2.7
	c0.1,0.8,0.4,1.8,0.4,2.2c0,0.1,0,0.1,0,0.2c0.2,0.5,0.4,1.5,1.7,1.5H23c0.9,0,1.5-0.6,1.8-1.8v-0.1c0.1-0.5,0.4-1.8,0.5-2.6
	C25.4,16.5,25.2,16,24.9,15.7z M13.3,19.3L13.3,19.3c-0.2,0.8-0.5,1.2-1,1.2H8.7c-0.7,0-0.8-0.4-1-1c0-0.1,0-0.2-0.1-0.2
	c-0.2-0.4-0.4-1.9-0.5-2.5c0-0.2,0.1-0.4,0.3-0.6c0.3-0.3,0.6-0.4,1-0.4h4.1c0.4,0,0.8,0.2,1,0.4c0.1,0.2,0.3,0.4,0.2,0.6
	C13.7,17.6,13.4,18.9,13.3,19.3z M24.1,19.3L24.1,19.3c-0.2,0.8-0.5,1.2-1,1.2h-3.5c-0.7,0-0.8-0.4-1-1c0-0.1,0-0.2-0.1-0.2
	c-0.2-0.4-0.4-1.9-0.5-2.5c0-0.2,0.1-0.4,0.3-0.6c0.3-0.3,0.6-0.4,1-0.4h4.1c0.4,0,0.8,0.2,1,0.4c0.1,0.2,0.3,0.4,0.2,0.6
	C24.5,17.6,24.2,18.8,24.1,19.3z"/>
<path class="st0" d="M22,1.2L22,1.2c0-0.1,0.2-0.2,0.2-0.3c0.2-0.2,0.4-0.4,0.4-0.6c0-0.1-0.2-0.2-0.4-0.3c-0.4-0.1-1.2,0-2.5,0
	c-0.8,0-1.6,0.1-1.9,0.1C17.2,0.1,16.1,0,15.3,0l0,0h0C6.4,0.3,3,6.2,3,9.9v4.8c0,0.2,0.1,0.3,0.2,0.4c0.2,0.2,0.4,0.2,0.6,0.2
	c1.5-0.3,2.4-1.6,2.9-4.3c0.4-1.8,1.5-3,3.5-3.6c1.9,0.8,4.3,1.7,5.3,1.8c0.2,0,0.3-0.1,0.3-0.2c0.1-0.2,0-0.4-0.4-0.7
	c1.4,0.5,2.4,0.8,2.9,0.8c0.2,0,0.3-0.1,0.3-0.2c0.1-0.2-0.2-0.5-0.9-1.2c1.7,0.6,2.7,0.9,3.4,1c0.2,0,0.3-0.1,0.4-0.2
	c0.1-0.2,0-0.4-0.6-0.9c-0.1,0-0.2-0.1-0.2-0.2c2.1,0.6,3.8,2,4.5,3.6c0.2,0.5,0.4,1,0.6,1.5c0.6,1.4,1,2.6,2.1,2.8c0,0,0.1,0,0.1,0
	c0.1,0,0.3,0,0.4-0.1c0.1-0.1,0.2-0.2,0.2-0.4v-5C28.5,7,26.5,3.1,22,1.2z"/>
<path class="st1" d="M18.6,24.1h-5.2c-0.4,0-0.8,0.4-0.8,0.8s0.4,0.8,0.8,0.8h5.2c0.4,0,0.8-0.4,0.8-0.8S19.1,24.1,18.6,24.1z"/>
<path class="st1" d="M10.3,16c-0.6,0-1,0.4-1.1,0.8v1.3c0,0.5,0.5,0.9,1.1,0.9c0.6,0,1.1-0.4,1.1-0.9v-1.3
	C11.3,16.3,10.9,16,10.3,16z M10.2,17.2c0,0.2-0.2,0.3-0.3,0.3s-0.3-0.2-0.3-0.3v-0.3c0-0.2,0.2-0.3,0.3-0.3s0.3,0.2,0.3,0.3V17.2z"
	/>
<path class="st1" d="M21.3,16c-0.6,0-1,0.4-1.1,0.8v1.3c0,0.5,0.5,0.9,1.1,0.9s1.1-0.4,1.1-0.9v-1.3C22.4,16.3,21.9,16,21.3,16z
	 M21.3,17.2c0,0.2-0.2,0.3-0.3,0.3c-0.2,0-0.3-0.2-0.3-0.3v-0.3c0-0.2,0.2-0.3,0.3-0.3c0.2,0,0.3,0.2,0.3,0.3V17.2z"/>
</svg>
