<svg xmlns="http://www.w3.org/2000/svg" viewBox="0 0 32 32"><defs><style>.cls-1{fill-rule:evenodd;}</style></defs><title>firefox</title><g id="General-icons"><path class="cls-1" d="M24.09,14.73a8.22,8.22,0,0,1,1.24.1c-.12-.61-.23-1.26-.32-1.93-.57-4-1.08-7.29-3.65-7.29H10.41C7.73,5.61,7,8.4,6.76,12.9S5.3,20.2,3.84,20.2H3.12a1.82,1.82,0,0,0,0,3.65H15.93a8.18,8.18,0,0,1,8.15-9.12Zm0,1.82a6.38,6.38,0,1,0,6.38,6.38A6.38,6.38,0,0,0,24.09,16.55Zm3.65,7.29H25v2.74a.91.91,0,0,1-1.82,0V23.85H20.44a.91.91,0,0,1,0-1.82h2.74V19.29a.91.91,0,0,1,1.82,0V22h2.74a.91.91,0,0,1,0,1.82Z"/></g></svg>