<svg xmlns="http://www.w3.org/2000/svg" viewBox="0 0 32 32"><defs><style>.cls-1{fill-rule:evenodd;}</style></defs><title>firefox</title><g id="General-icons"><path class="cls-1" d="M30.17,12.66H2.56c-.36,0-.95.72-.71,1.77a62,62,0,0,1,1.23,7.35,34.63,34.63,0,0,1,.37,5.89.65.65,0,0,0,.66.65H28.62a.65.65,0,0,0,.66-.65,34.61,34.61,0,0,1,.37-5.89,62,62,0,0,1,1.23-7.35C31.12,13.38,30.53,12.66,30.17,12.66ZM3.53,11.74H29.28V9A.93.93,0,0,0,28.33,8h-12L14.85,6s-1.1-1.62-2.1-1.62H5.29A1.83,1.83,0,0,0,3.48,6.23V8.08h.07Z"/></g></svg>