<svg xmlns="http://www.w3.org/2000/svg" viewBox="0 0 32 32"><defs><style>.cls-1{fill-rule:evenodd;}</style></defs><title>permission</title><g id="Permission-icons"><g id="popup-block"><path class="cls-1" d="M22.5,13a9,9,0,1,0,9,9A9,9,0,0,0,22.5,13Zm-5,9a5,5,0,0,1,6.91-4.62l-6.53,6.53A5,5,0,0,1,17.5,22Zm5,5a5,5,0,0,1-1.72-.32l6.4-6.4A5,5,0,0,1,22.5,27Zm-13-4a2,2,0,0,1-2-2V11a2,2,0,0,1,2-2h14a2,2,0,0,1,2,2v.42a11,11,0,0,1,4,2.13V7a4,4,0,0,0-4-4h-18a4,4,0,0,0-4,4V23a4,4,0,0,0,4,4h5.19a10.91,10.91,0,0,1-1.18-4Z"/></g></g></svg>