<svg id="box" xmlns="http://www.w3.org/2000/svg" viewBox="0 0 32 32"><defs><style>.cls-1{fill:#fff;}.cls-2{fill:#231815;}</style></defs><title>icon sheet</title><rect class="cls-1" width="32" height="32"/><path class="cls-2" d="M30,20.57c0.85-1.69,2.14-5.5,1-8.61l0,0.09,0-.06s-0.21.62-.5,1.58q0-.19-0.06-0.38a13.93,13.93,0,0,0-.19-3.62,7.3,7.3,0,0,0-2.6-4.06l0.12,0.1-0.14-.1L27.79,6a5.81,5.81,0,0,0-2.11-1.93s0,0.22.1,0.68A14.77,14.77,0,0,0,6,4.87a7.21,7.21,0,0,1,.45.61,9.08,9.08,0,0,1,2.22-.06A12.68,12.68,0,0,1,24.93,6.83L25.3,7.21a4.92,4.92,0,0,0-2.23-1c1.32,1,3.28,3.43,3.08,7.74A5.15,5.15,0,0,0,25,12.26c0.47,4.33.06,5.26-.23,6.41a3.75,3.75,0,0,0-.36-1.17,9.62,9.62,0,0,1-.93,3.28c-0.67,1.46-1.35,1.91-1.66,1.86s-0.08-.3-0.14-0.56a3.58,3.58,0,0,0-.91.69c-0.43.45-.82,0.94-1,0.8A2.14,2.14,0,0,0,20.09,23a3.29,3.29,0,0,1-1.56.58,6.86,6.86,0,0,1-4.3-.75,1.89,1.89,0,0,1,1.18.07c-0.37-.41-1.27-0.32-1.91-0.52a6.19,6.19,0,0,1-1.71-1.36,6.07,6.07,0,0,0,4.6-.6c1.06-.73,1.7-1.26,2.26-1.13a0.54,0.54,0,0,0,.5-0.95,2.93,2.93,0,0,0-3-.82c-1,.27-2.28,1.39-4.21.25-1.64-1-1.63-1.77-1.63-2.27a1.26,1.26,0,0,1,.6-1,2.94,2.94,0,0,1,.35.15s-0.1-.15-0.16-0.23h0a7.75,7.75,0,0,1,.76.3,1,1,0,0,1,.36.27s0.06,0,0-.18a1,1,0,0,0-.39-0.39h0a3.7,3.7,0,0,1,.45.22,2,2,0,0,0,.08-0.91,1.1,1.1,0,0,0-.12-0.49c-0.06-.09,0-0.14.12-0.05a1.37,1.37,0,0,0-.1-0.22h0a0.23,0.23,0,0,1,0-.08,15.33,15.33,0,0,1,2.43-1.58,2.1,2.1,0,0,0,.53-0.59,1.65,1.65,0,0,0,.38-1,0.64,0.64,0,0,0-.5-0.37,2.15,2.15,0,0,0-.72,0l0,0c-0.36,0-.85,0-1.52,0a1.58,1.58,0,0,1-1.33-.73l-0.14-.22A2.59,2.59,0,0,1,11.47,8,5.1,5.1,0,0,1,13.21,5.4c0.05,0-.21,0-0.16,0a5.43,5.43,0,0,1,.51-0.27A1,1,0,0,0,12.72,5a2.12,2.12,0,0,0-.73.25C12.07,5.17,12.36,5,12.29,5a4.55,4.55,0,0,0-1.48.74,0.61,0.61,0,0,1,0-.14,2.48,2.48,0,0,0-.89.84,1.32,1.32,0,0,0,0-.18,3.26,3.26,0,0,0-.43.48h0a6.38,6.38,0,0,0-3.55.05A5.63,5.63,0,0,1,4.74,5.49c0-.06,0,0.13-0.07.07a4.31,4.31,0,0,1-.44-1.5s0-.1,0-0.15a1.27,1.27,0,0,0-.38.43,2.71,2.71,0,0,0-.25.58c0,0.14-.08.22-0.11,0.3S3.5,5,3.49,5a1.92,1.92,0,0,0-.23.43,2.37,2.37,0,0,0-.11.38h0a0.54,0.54,0,0,0,0-.17,7.19,7.19,0,0,0-.3,1,6,6,0,0,0-.16,1,9.11,9.11,0,0,0,0,1.45c0,0.08,0,.16,0,0.24A6.68,6.68,0,0,0,2,10.51a15.74,15.74,0,0,0-1.3,4.37,10.18,10.18,0,0,1,.74-1.68v0a15.1,15.1,0,0,0-.47,5.51,15.88,15.88,0,0,1,.28-1.66,13.86,13.86,0,0,0,2,6.27,12.8,12.8,0,0,0,3.53,4q0.37,0.3.75,0.57a16.27,16.27,0,0,0,6.38,3,3.33,3.33,0,0,1-1.23-.66,16.22,16.22,0,0,0,4.48.76,0.87,0.87,0,0,1-.71-0.39s5.38,0.3,8.18-1.9a3,3,0,0,0,1.16-1.52,11.15,11.15,0,0,0,2.63-1.94,5.62,5.62,0,0,0,1.85-3.7l0,0.1A1.59,1.59,0,0,0,30,20.57Z"/></svg>