<?xml version="1.0" encoding="utf-8"?>
<!-- Generator: Adobe Illustrator 19.2.1, SVG Export Plug-In . SVG Version: 6.00 Build 0)  -->
<svg version="1.1" id="box" xmlns="http://www.w3.org/2000/svg" xmlns:xlink="http://www.w3.org/1999/xlink" x="0px" y="0px"
	 viewBox="0 0 32 32" style="enable-background:new 0 0 32 32;" xml:space="preserve">
<style type="text/css">
	.st0{fill:#231815;}
</style>
<path class="st0" d="M30,20.6c0.9-1.7,2.1-5.5,1-8.6V12V12c0,0-0.2,0.6-0.5,1.6c0-0.1,0-0.3-0.1-0.4c0.1-1.2,0-2.4-0.2-3.6
	c-0.4-1.6-1.3-3-2.6-4.1l0.1,0.1l-0.1-0.1L27.8,6c-0.5-0.8-1.3-1.5-2.1-1.9c0,0,0,0.2,0.1,0.7c-5.7-5-14.2-5-19.8,0.1
	c0.2,0.2,0.3,0.4,0.4,0.6c0.7-0.1,1.5-0.1,2.2-0.1c5-3.5,11.9-2.9,16.3,1.4l0.4,0.4c-0.6-0.5-1.4-0.9-2.2-1c1.3,1,3.3,3.4,3.1,7.7
	c-0.3-0.6-0.7-1.2-1.1-1.7c0.5,4.3,0.1,5.3-0.2,6.4c-0.1-0.4-0.2-0.8-0.4-1.2c-0.1,1.1-0.4,2.3-0.9,3.3c-0.7,1.5-1.4,1.9-1.7,1.9
	s-0.1-0.3-0.1-0.6c-0.3,0.2-0.6,0.4-0.9,0.7c-0.4,0.5-0.8,0.9-1,0.8c0.1-0.2,0.2-0.4,0.3-0.6c-0.5,0.3-1,0.5-1.6,0.6
	c-1.5,0.2-3,0-4.3-0.8c0.4-0.1,0.8-0.1,1.2,0.1c-0.4-0.4-1.3-0.3-1.9-0.5c-0.6-0.3-1.2-0.8-1.7-1.4c1.6,0.4,3.2,0.2,4.6-0.6
	c1.1-0.7,1.7-1.3,2.3-1.1c0.3,0.1,0.6,0,0.7-0.3c0.1-0.2,0-0.5-0.2-0.6c-0.8-0.8-1.9-1.1-3-0.8c-1,0.3-2.3,1.4-4.2,0.2
	c-1.6-1-1.6-1.8-1.6-2.3c0-0.4,0.2-0.8,0.6-1c0.1,0,0.2,0.1,0.4,0.1c0,0-0.1-0.1-0.2-0.2l0,0c0.3,0.1,0.5,0.2,0.8,0.3
	c0.1,0.1,0.3,0.2,0.4,0.3c0,0,0.1,0,0-0.2c-0.1-0.2-0.2-0.3-0.4-0.4l0,0c0.2,0.1,0.3,0.1,0.4,0.2c0.1-0.3,0.1-0.6,0.1-0.9
	c0-0.2,0-0.3-0.1-0.5c-0.1-0.1,0-0.1,0.1-0.1c0-0.1-0.1-0.1-0.1-0.2l0,0c0,0,0-0.1,0-0.1c0.8-0.6,1.6-1.1,2.4-1.6
	c0.2-0.2,0.4-0.4,0.5-0.6c0.2-0.3,0.4-0.6,0.4-1c-0.1-0.2-0.3-0.3-0.5-0.4c-0.2,0-0.5,0-0.7,0l0,0c-0.4,0-0.9,0-1.5,0
	c-0.5,0-1-0.3-1.3-0.7l-0.1-0.2c0-0.1,0-0.3,0.1-0.4c0.3-1,0.9-1.9,1.7-2.6c0.1,0-0.2,0-0.2,0c0.2-0.1,0.3-0.2,0.5-0.3
	C13.3,5,13,4.9,12.7,5c-0.3,0-0.5,0.1-0.7,0.2C12.1,5.2,12.4,5,12.3,5c-0.5,0.2-1,0.4-1.5,0.7c0,0,0-0.1,0-0.1
	c-0.4,0.2-0.7,0.5-0.9,0.8c0-0.1,0-0.1,0-0.2C9.8,6.4,9.6,6.6,9.5,6.7l0,0C8.3,6.4,7.1,6.4,5.9,6.8C5.5,6.4,5.1,6,4.7,5.5
	c0-0.1,0,0.1-0.1,0.1c-0.2-0.5-0.4-1-0.4-1.5c0,0,0-0.1,0-0.1C4.1,4,3.9,4.2,3.8,4.3C3.7,4.5,3.7,4.7,3.6,4.9c0,0.1-0.1,0.2-0.1,0.3
	s0-0.2,0-0.2C3.4,5.1,3.3,5.3,3.3,5.4c0,0.1-0.1,0.3-0.1,0.4l0,0c0-0.1,0-0.1,0-0.2C3,6,2.9,6.3,2.9,6.6C2.8,7,2.7,7.3,2.7,7.6
	c0,0.5,0,1,0,1.5c0,0.1,0,0.2,0,0.2C2.4,9.7,2.2,10.1,2,10.5c-0.6,1.4-1.1,2.9-1.3,4.4c0.2-0.6,0.4-1.1,0.7-1.7l0,0
	C0.9,15,0.8,16.9,1,18.7C1,18.2,1.1,17.6,1.2,17c0.2,2.2,0.8,4.4,2,6.3c0.9,1.6,2.1,2.9,3.5,4c0.2,0.2,0.5,0.4,0.8,0.6
	c1.9,1.5,4.1,2.5,6.4,3c-0.5-0.1-0.9-0.4-1.2-0.7c1.5,0.5,3,0.7,4.5,0.8c-0.3,0-0.6-0.2-0.7-0.4c0,0,5.4,0.3,8.2-1.9
	c0.5-0.4,0.9-0.9,1.2-1.5c1-0.5,1.9-1.2,2.6-1.9c1.1-1,1.7-2.3,1.9-3.7v0.1C30.3,21.3,30.2,20.9,30,20.6z"/>
</svg>
