<svg id="Layer_9" data-name="Layer 9" xmlns="http://www.w3.org/2000/svg" viewBox="0 0 32 32"><defs><style>.cls-1{fill:#231815;fill-rule:evenodd;}</style></defs><title>icon sheet</title><path class="cls-1" d="M26.32,13H25.48V10.13C25.48,5.09,21,1,16,1S6.46,5.09,6.46,10.13V13H5.59A2.6,2.6,0,0,0,3,15.61V28.39A2.6,2.6,0,0,0,5.59,31H26.32a2.6,2.6,0,0,0,2.59-2.61V15.61A2.6,2.6,0,0,0,26.32,13ZM10.51,10.13A5.34,5.34,0,0,1,16,5a5.37,5.37,0,0,1,5.47,5.12V13H10.51V10.13Zm-4.79,12-1.36-1.8V16.91l4.09,5.22H5.73Zm5.46,0L7,16.65H9.61l4.3,5.49H11.18Zm4.77,0-4.16-5.49h2.59l4.3,5.49H16Zm5.46,0-4.16-5.49h2.59l4.3,5.49H21.41Zm6.14,0H26.86l-4.16-5.49H25.3l2.25,2.87v2.61Z"/></svg>