<svg xmlns="http://www.w3.org/2000/svg" viewBox="0 0 32 32"><defs><style>.cls-1{fill-rule:evenodd;}</style></defs><title>permission</title><g id="Permission-icons"><g id="addons-disable"><path class="cls-1" d="M12.38,27.12,9.5,30h1.37S13,30,13,28A.77.77,0,0,0,12.38,27.12ZM28.64,14c-2.17,0-2.17,1.4-3.56,1.4a1.78,1.78,0,0,1-.81-.18l-8.37,8.37c1.41.41,2.26,1.43,2.26,2.21,0,2-2.17.6-2.17,2.2,0,2,2.37,2,2.37,2h3.16a2,2,0,0,0,2-2V22a1.56,1.56,0,0,1,1.58-1.6c1.19,0,1.19,1.6,3.56,1.6,1.19,0,3-.4,3-4S29.83,14,28.64,14ZM29.5,2l-8,8H17.58A1.55,1.55,0,0,1,16,8.4c0-1.2,1.58-1.2,1.58-3.4,0-1.2-.4-3-4-3s-4,1.8-4,3c0,2.2,1.58,2.2,1.58,3.6S9.68,10,9.68,10H5.48a2,2,0,0,0-2,2v3s-.2,2,2.17,2c1.58,0,2-2,4-2,1-.2,2,1,2,3s-1,3.2-2,3.2c-2,0-2.42-2.2-4-2.2C3.31,19,3.5,21.6,3.5,21.6V28h0a2,2,0,0,0,.58,1.41L4.5,29l1,1,26-26Z"/></g></g></svg>